<?xml version="1.0" standalone="no"?><!DOCTYPE svg PUBLIC "-//W3C//DTD SVG 1.1//EN" "http://www.w3.org/Graphics/SVG/1.1/DTD/svg11.dtd"><svg height="1200" node-id="1" sillyvg="true" template-height="1200" template-width="1200" version="1.1" viewBox="0 0 1200 1200" width="1200" xmlns="http://www.w3.org/2000/svg" xmlns:xlink="http://www.w3.org/1999/xlink"><defs node-id="34"><clipPath id="clip-path" node-id="5"><path d="M 1062.10 -640.30 L 1061.90 -625.50 L 1061.20 -610.90 L 1060.00 -596.40 L 1058.40 -581.90 L 1056.40 -567.50 L 1053.90 -553.20 L 1050.90 -539.00 L 1047.50 -525.00 L 1043.70 -511.00 L 1039.40 -497.20 L 1034.80 -483.60 L 1029.70 -470.10 L 1024.10 -456.80 L 1018.20 -443.60 L 1011.90 -430.70 L 1005.10 -417.90 L 998.00 -405.30 L 990.40 -393.00 L 982.50 -380.90 L 974.10 -369.00 L 965.40 -357.40 L 956.30 -346.00 L 946.90 -334.90 L 937.00 -324.10 L 926.80 -313.50 L 916.20 -303.20 L 905.30 -293.40 L 894.30 -283.90 L 882.90 -274.80 L 871.30 -266.10 L 859.40 -257.80 L 847.30 -249.80 L 834.90 -242.30 L 822.40 -235.20 L 809.60 -228.40 L 796.60 -222.00 L 783.50 -216.10 L 770.20 -210.60 L 756.70 -205.50 L 743.00 -200.80 L 729.20 -196.60 L 715.30 -192.70 L 701.20 -189.40 L 687.10 -186.40 L 672.70 -183.90 L 658.40 -181.80 L 643.90 -180.20 L 629.40 -179.10 L 614.70 -178.40 L 600.00 -178.10 L 585.30 -178.40 L 570.60 -179.10 L 556.10 -180.20 L 541.60 -181.80 L 527.30 -183.90 L 512.90 -186.40 L 498.80 -189.40 L 484.70 -192.70 L 470.80 -196.60 L 457.00 -200.80 L 443.30 -205.50 L 429.80 -210.60 L 416.50 -216.10 L 403.40 -222.00 L 390.40 -228.40 L 377.60 -235.20 L 365.10 -242.30 L 352.70 -249.80 L 340.60 -257.80 L 328.70 -266.10 L 317.10 -274.80 L 305.70 -283.90 L 294.70 -293.40 L 283.80 -303.20 L 273.20 -313.50 L 263.00 -324.10 L 253.10 -334.90 L 243.70 -346.00 L 234.60 -357.40 L 225.90 -369.00 L 217.50 -380.90 L 209.60 -393.00 L 202.00 -405.30 L 194.90 -417.90 L 188.10 -430.70 L 181.80 -443.60 L 175.90 -456.80 L 170.30 -470.10 L 165.20 -483.60 L 160.60 -497.20 L 156.30 -511.00 L 152.50 -525.00 L 149.10 -539.00 L 146.10 -553.20 L 143.60 -567.50 L 141.60 -581.90 L 140.00 -596.40 L 138.80 -610.90 L 138.10 -625.50 L 137.90 -640.30 L 138.10 -655.00 L 138.80 -669.60 L 140.00 -684.20 L 141.60 -698.60 L 143.60 -713.00 L 146.10 -727.30 L 149.10 -741.50 L 152.50 -755.50 L 156.30 -769.50 L 160.60 -783.30 L 165.20 -796.90 L 170.30 -810.40 L 175.90 -823.70 L 181.80 -836.90 L 188.10 -849.90 L 194.90 -862.60 L 202.00 -875.20 L 209.60 -887.50 L 217.50 -899.60 L 225.90 -911.50 L 234.60 -923.20 L 243.70 -934.50 L 253.10 -945.60 L 263.00 -956.40 L 273.20 -967.00 L 283.80 -977.30 L 294.70 -987.10 L 305.70 -996.60 L 317.10 -1005.70 L 328.70 -1014.40 L 340.60 -1022.70 L 352.70 -1030.70 L 365.10 -1038.20 L 377.60 -1045.40 L 390.40 -1052.10 L 403.40 -1058.50 L 416.50 -1064.40 L 429.80 -1069.90 L 443.30 -1075.00 L 457.00 -1079.70 L 470.80 -1084.00 L 484.70 -1087.80 L 498.80 -1091.20 L 512.90 -1094.10 L 527.30 -1096.60 L 541.60 -1098.70 L 556.10 -1100.30 L 570.60 -1101.50 L 585.30 -1102.20 L 600.00 -1102.40 L 614.70 -1102.20 L 629.40 -1101.50 L 643.90 -1100.30 L 658.40 -1098.70 L 672.70 -1096.60 L 687.10 -1094.10 L 701.20 -1091.20 L 715.30 -1087.80 L 729.20 -1084.00 L 743.00 -1079.70 L 756.70 -1075.00 L 770.20 -1069.90 L 783.50 -1064.40 L 796.60 -1058.50 L 809.60 -1052.10 L 822.40 -1045.40 L 834.90 -1038.20 L 847.30 -1030.70 L 859.40 -1022.70 L 871.30 -1014.40 L 882.90 -1005.70 L 894.30 -996.60 L 905.30 -987.10 L 916.20 -977.30 L 926.80 -967.00 L 937.00 -956.40 L 946.90 -945.60 L 956.30 -934.50 L 965.40 -923.20 L 974.10 -911.50 L 982.50 -899.60 L 990.40 -887.50 L 998.00 -875.20 L 1005.10 -862.60 L 1011.90 -849.90 L 1018.20 -836.90 L 1024.10 -823.70 L 1029.70 -810.40 L 1034.80 -796.90 L 1039.40 -783.30 L 1043.70 -769.50 L 1047.50 -755.50 L 1050.90 -741.50 L 1053.90 -727.30 L 1056.40 -713.00 L 1058.40 -698.60 L 1060.00 -684.20 L 1061.20 -669.60 L 1061.90 -655.00 L 1062.10 -640.30 Z" fill="#000000" fill-rule="nonzero" node-id="37" stroke="none" target-height="924.30005" target-width="924.19995" target-x="137.9" target-y="-1102.4"></path></clipPath><clipPath id="clip-path-2" node-id="7"><path d="M 1062.10 600.00 L 1061.90 614.70 L 1061.20 629.40 L 1060.00 643.90 L 1058.40 658.40 L 1056.40 672.70 L 1053.90 687.10 L 1050.90 701.20 L 1047.50 715.30 L 1043.70 729.20 L 1039.40 743.00 L 1034.80 756.70 L 1029.70 770.20 L 1024.10 783.50 L 1018.20 796.60 L 1011.90 809.60 L 1005.10 822.40 L 998.00 834.90 L 990.40 847.30 L 982.50 859.40 L 974.10 871.30 L 965.40 882.90 L 956.30 894.30 L 946.90 905.30 L 937.00 916.20 L 926.80 926.80 L 916.20 937.00 L 905.30 946.90 L 894.30 956.30 L 882.90 965.40 L 871.30 974.10 L 859.40 982.50 L 847.30 990.40 L 834.90 998.00 L 822.40 1005.10 L 809.60 1011.90 L 796.60 1018.20 L 783.50 1024.10 L 770.20 1029.70 L 756.70 1034.80 L 743.00 1039.40 L 729.20 1043.70 L 715.30 1047.50 L 701.20 1050.90 L 687.10 1053.90 L 672.70 1056.40 L 658.40 1058.40 L 643.90 1060.00 L 629.40 1061.20 L 614.70 1061.90 L 600.00 1062.10 L 585.30 1061.90 L 570.60 1061.20 L 556.10 1060.00 L 541.60 1058.40 L 527.30 1056.40 L 512.90 1053.90 L 498.80 1050.90 L 484.70 1047.50 L 470.80 1043.70 L 457.00 1039.40 L 443.30 1034.80 L 429.80 1029.70 L 416.50 1024.10 L 403.40 1018.20 L 390.40 1011.90 L 377.60 1005.10 L 365.10 998.00 L 352.70 990.40 L 340.60 982.50 L 328.70 974.10 L 317.10 965.40 L 305.70 956.30 L 294.70 946.90 L 283.80 937.00 L 273.20 926.80 L 263.00 916.20 L 253.10 905.30 L 243.70 894.30 L 234.60 882.90 L 225.90 871.30 L 217.50 859.40 L 209.60 847.30 L 202.00 834.90 L 194.90 822.40 L 188.10 809.60 L 181.80 796.60 L 175.90 783.50 L 170.30 770.20 L 165.20 756.70 L 160.60 743.00 L 156.30 729.20 L 152.50 715.30 L 149.10 701.20 L 146.10 687.10 L 143.60 672.70 L 141.60 658.40 L 140.00 643.90 L 138.80 629.40 L 138.10 614.70 L 137.90 600.00 L 138.10 585.30 L 138.80 570.60 L 140.00 556.10 L 141.60 541.60 L 143.60 527.30 L 146.10 512.90 L 149.10 498.80 L 152.50 484.70 L 156.30 470.80 L 160.60 457.00 L 165.20 443.30 L 170.30 429.80 L 175.90 416.50 L 181.80 403.40 L 188.10 390.40 L 194.90 377.60 L 202.00 365.10 L 209.60 352.70 L 217.50 340.60 L 225.90 328.70 L 234.60 317.10 L 243.70 305.70 L 253.10 294.70 L 263.00 283.80 L 273.20 273.20 L 283.80 263.00 L 294.70 253.10 L 305.70 243.70 L 317.10 234.60 L 328.70 225.90 L 340.60 217.50 L 352.70 209.60 L 365.10 202.00 L 377.60 194.90 L 390.40 188.10 L 403.40 181.80 L 416.50 175.90 L 429.80 170.30 L 443.30 165.20 L 457.00 160.60 L 470.80 156.30 L 484.70 152.50 L 498.80 149.10 L 512.90 146.10 L 527.30 143.60 L 541.60 141.60 L 556.10 140.00 L 570.60 138.80 L 585.30 138.10 L 600.00 137.90 L 614.70 138.10 L 629.40 138.80 L 643.90 140.00 L 658.40 141.60 L 672.70 143.60 L 687.10 146.10 L 701.20 149.10 L 715.30 152.50 L 729.20 156.30 L 743.00 160.60 L 756.70 165.20 L 770.20 170.30 L 783.50 175.90 L 796.60 181.80 L 809.60 188.10 L 822.40 194.90 L 834.90 202.00 L 847.30 209.60 L 859.40 217.50 L 871.30 225.90 L 882.90 234.60 L 894.30 243.70 L 905.30 253.10 L 916.20 263.00 L 926.80 273.20 L 937.00 283.80 L 946.90 294.70 L 956.30 305.70 L 965.40 317.10 L 974.10 328.70 L 982.50 340.60 L 990.40 352.70 L 998.00 365.10 L 1005.10 377.60 L 1011.90 390.40 L 1018.20 403.40 L 1024.10 416.50 L 1029.70 429.80 L 1034.80 443.30 L 1039.40 457.00 L 1043.70 470.80 L 1047.50 484.70 L 1050.90 498.80 L 1053.90 512.90 L 1056.40 527.30 L 1058.40 541.60 L 1060.00 556.10 L 1061.20 570.60 L 1061.90 585.30 L 1062.10 600.00 Z" fill="#000000" fill-rule="nonzero" node-id="41" stroke="none" target-height="924.19995" target-width="924.19995" target-x="137.9" target-y="137.9"></path></clipPath></defs><path d="M 1062.10 600.00 L 1061.90 614.70 L 1061.20 629.40 L 1060.00 643.90 L 1058.40 658.40 L 1056.40 672.70 L 1053.90 687.10 L 1050.90 701.20 L 1047.50 715.30 L 1043.70 729.20 L 1039.40 743.00 L 1034.80 756.70 L 1029.70 770.20 L 1024.10 783.50 L 1018.20 796.60 L 1011.90 809.60 L 1005.10 822.40 L 998.00 834.90 L 990.40 847.30 L 982.50 859.40 L 974.10 871.30 L 965.40 882.90 L 956.30 894.30 L 946.90 905.30 L 937.00 916.20 L 926.80 926.80 L 916.20 937.00 L 905.30 946.90 L 894.30 956.30 L 882.90 965.40 L 871.30 974.10 L 859.40 982.50 L 847.30 990.40 L 834.90 998.00 L 822.40 1005.10 L 809.60 1011.90 L 796.60 1018.20 L 783.50 1024.10 L 770.20 1029.70 L 756.70 1034.80 L 743.00 1039.40 L 729.20 1043.70 L 715.30 1047.50 L 701.20 1050.90 L 687.10 1053.90 L 672.70 1056.40 L 658.40 1058.40 L 643.90 1060.00 L 629.40 1061.20 L 614.70 1061.90 L 600.00 1062.10 L 585.30 1061.90 L 570.60 1061.20 L 556.10 1060.00 L 541.60 1058.40 L 527.30 1056.40 L 512.90 1053.90 L 498.80 1050.90 L 484.70 1047.50 L 470.80 1043.70 L 457.00 1039.40 L 443.30 1034.80 L 429.80 1029.70 L 416.50 1024.10 L 403.40 1018.20 L 390.40 1011.90 L 377.60 1005.10 L 365.10 998.00 L 352.70 990.40 L 340.60 982.50 L 328.70 974.10 L 317.10 965.40 L 305.70 956.30 L 294.70 946.90 L 283.80 937.00 L 273.20 926.80 L 263.00 916.20 L 253.10 905.30 L 243.70 894.30 L 234.60 882.90 L 225.90 871.30 L 217.50 859.40 L 209.60 847.30 L 202.00 834.90 L 194.90 822.40 L 188.10 809.60 L 181.80 796.60 L 175.90 783.50 L 170.30 770.20 L 165.20 756.70 L 160.60 743.00 L 156.30 729.20 L 152.50 715.30 L 149.10 701.20 L 146.10 687.10 L 143.60 672.70 L 141.60 658.40 L 140.00 643.90 L 138.80 629.40 L 138.10 614.70 L 137.90 600.00 L 138.10 585.30 L 138.80 570.60 L 140.00 556.10 L 141.60 541.60 L 143.60 527.30 L 146.10 512.90 L 149.10 498.80 L 152.50 484.70 L 156.30 470.80 L 160.60 457.00 L 165.20 443.30 L 170.30 429.80 L 175.90 416.50 L 181.80 403.40 L 188.10 390.40 L 194.90 377.60 L 202.00 365.10 L 209.60 352.70 L 217.50 340.60 L 225.90 328.70 L 234.60 317.10 L 243.70 305.70 L 253.10 294.70 L 263.00 283.80 L 273.20 273.20 L 283.80 263.00 L 294.70 253.10 L 305.70 243.70 L 317.10 234.60 L 328.70 225.90 L 340.60 217.50 L 352.70 209.60 L 365.10 202.00 L 377.60 194.90 L 390.40 188.10 L 403.40 181.80 L 416.50 175.90 L 429.80 170.30 L 443.30 165.20 L 457.00 160.60 L 470.80 156.30 L 484.70 152.50 L 498.80 149.10 L 512.90 146.10 L 527.30 143.60 L 541.60 141.60 L 556.10 140.00 L 570.60 138.80 L 585.30 138.10 L 600.00 137.90 L 614.70 138.10 L 629.40 138.80 L 643.90 140.00 L 658.40 141.60 L 672.70 143.60 L 687.10 146.10 L 701.20 149.10 L 715.30 152.50 L 729.20 156.30 L 743.00 160.60 L 756.70 165.20 L 770.20 170.30 L 783.50 175.90 L 796.60 181.80 L 809.60 188.10 L 822.40 194.90 L 834.90 202.00 L 847.30 209.60 L 859.40 217.50 L 871.30 225.90 L 882.90 234.60 L 894.30 243.70 L 905.30 253.10 L 916.20 263.00 L 926.80 273.20 L 937.00 283.80 L 946.90 294.70 L 956.30 305.70 L 965.40 317.10 L 974.10 328.70 L 982.50 340.60 L 990.40 352.70 L 998.00 365.10 L 1005.10 377.60 L 1011.90 390.40 L 1018.20 403.40 L 1024.10 416.50 L 1029.70 429.80 L 1034.80 443.30 L 1039.40 457.00 L 1043.70 470.80 L 1047.50 484.70 L 1050.90 498.80 L 1053.90 512.90 L 1056.40 527.30 L 1058.40 541.60 L 1060.00 556.10 L 1061.20 570.60 L 1061.90 585.30 L 1062.10 600.00 Z" fill="#17a18b" fill-rule="nonzero" node-id="45" stroke="none" target-height="924.19995" target-width="924.19995" target-x="137.9" target-y="137.9"></path><g node-id="90"><g clip-path="url(#clip-path)" group-id="1" id="sillyvg_g_0" node-id="47"><path d="M 890.00 -271.40 L 885.40 -278.30 L 882.30 -282.00 L 873.20 -291.00 L 860.30 -301.60 L 849.60 -309.40 L 837.70 -317.40 L 812.60 -332.70 L 787.40 -346.80 L 764.00 -359.00 L 726.60 -377.10 L 600.10 -220.90 L 600.70 137.40 L 926.40 125.80 L 923.90 69.60 L 919.50 -10.90 L 916.60 -57.10 L 913.30 -104.20 L 909.40 -149.80 L 905.20 -191.70 L 900.50 -227.50 L 897.90 -242.90 L 895.40 -254.80 L 893.50 -262.30 L 891.60 -267.70 L 890.00 -271.40 Z" fill="#ffffff" fill-rule="nonzero" group-id="1" node-id="49" stroke="#370911" stroke-linecap="butt" stroke-width="14" target-height="514.5" target-width="326.30005" target-x="600.1" target-y="-377.1"></path><path d="M 310.00 -271.40 L 308.40 -267.70 L 306.50 -262.30 L 304.60 -254.80 L 302.10 -242.90 L 299.50 -227.50 L 294.80 -191.70 L 290.60 -149.80 L 286.80 -104.20 L 283.40 -57.10 L 280.50 -10.90 L 276.10 69.60 L 273.60 125.80 L 599.30 137.40 L 599.90 -219.90 L 473.40 -377.10 L 436.00 -359.00 L 412.60 -346.80 L 387.40 -332.70 L 362.30 -317.40 L 350.40 -309.40 L 339.70 -301.60 L 326.80 -291.00 L 317.70 -282.00 L 314.60 -278.30 L 310.00 -271.40 Z" fill="#ffffff" fill-rule="nonzero" group-id="1" node-id="51" stroke="#370911" stroke-linecap="butt" stroke-width="14" target-height="514.5" target-width="326.30002" target-x="273.6" target-y="-377.1"></path><path d="M 775.40 -353.10 L 739.70 -283.00 L 707.70 -221.50 L 677.60 -165.50 L 666.00 -145.00 L 661.10 -137.10 L 658.00 -132.40 L 649.80 -122.40 L 638.80 -111.30 L 626.20 -100.70 L 620.80 -96.70 L 609.30 -89.10 L 601.40 44.10 L 855.50 48.70 L 910.30 -140.60 L 909.90 -156.40 L 909.10 -173.30 L 907.50 -193.60 L 904.80 -215.30 L 903.00 -226.20 L 899.10 -243.50 L 895.30 -255.60 L 892.50 -262.10 L 889.70 -267.80 L 886.70 -273.00 L 881.90 -280.20 L 877.60 -285.70 L 873.30 -290.50 L 867.30 -296.10 Z" fill="#e84660" fill-rule="nonzero" group-id="1" node-id="53" stroke="#370911" stroke-linecap="butt" stroke-width="14" target-height="401.80002" target-width="308.89996" target-x="601.4" target-y="-353.1"></path><path d="M 422.60 -353.10 L 458.30 -283.00 L 490.30 -221.50 L 520.30 -165.50 L 532.00 -145.00 L 536.90 -137.10 L 540.00 -132.40 L 548.20 -122.40 L 559.20 -111.30 L 571.80 -100.70 L 577.20 -96.70 L 588.80 -89.10 L 596.60 44.10 L 342.50 48.70 L 287.70 -140.60 L 299.20 -222.50 L 303.50 -250.20 L 304.80 -255.70 L 306.30 -260.80 L 308.20 -265.60 L 310.40 -270.20 L 315.20 -278.30 L 322.60 -287.90 L 326.00 -291.70 L 330.70 -296.20 Z" fill="#e84660" fill-rule="nonzero" group-id="1" node-id="55" stroke="#370911" stroke-linecap="butt" stroke-width="14" target-height="401.80002" target-width="308.89996" target-x="287.7" target-y="-353.1"></path></g></g><g clip-path="url(#clip-path-2)" group-id="2" id="sillyvg_g_1" node-id="58"><path d="M 477.40 781.90 L 464.30 946.90 L 622.80 1015.00 L 738.40 965.50 L 729.10 785.90 L 500.00 779.20 L 477.40 781.90 Z" fill="#eab9b1" fill-rule="nonzero" group-id="2" node-id="60" stroke="#370911" stroke-linecap="butt" stroke-width="14" target-height="235.79999" target-width="274.10004" target-x="464.3" target-y="779.2"></path><path d="M 896.50 594.00 L 896.30 600.00 L 894.80 611.70 L 893.50 617.40 L 891.30 624.90 L 888.50 632.00 L 885.20 638.70 L 879.30 648.10 L 872.60 656.10 L 868.80 659.70 L 864.90 662.90 L 860.80 665.60 L 856.60 667.80 L 852.20 669.70 L 847.60 671.00 L 843.00 671.90 L 838.20 672.20 L 833.40 671.90 L 828.70 671.20 L 824.20 670.10 L 819.80 668.50 L 815.50 666.50 L 811.40 664.10 L 807.50 661.40 L 803.80 658.20 L 797.00 651.10 L 794.00 647.00 L 788.70 638.10 L 784.50 628.20 L 781.60 617.40 L 780.70 611.80 L 779.90 600.00 L 780.20 594.00 L 780.90 588.20 L 782.00 582.60 L 783.60 577.20 L 785.60 571.90 L 788.00 566.80 L 790.60 562.00 L 797.00 553.00 L 804.30 545.20 L 812.60 538.60 L 817.00 535.90 L 826.00 531.50 L 830.80 529.90 L 835.60 528.80 L 840.40 528.10 L 845.20 527.90 L 850.10 528.10 L 854.60 528.70 L 858.90 529.60 L 863.00 530.90 L 866.80 532.60 L 871.30 535.20 L 875.50 538.20 L 879.40 541.80 L 882.90 546.00 L 885.90 550.40 L 888.60 555.40 L 891.00 560.80 L 893.00 566.90 L 894.50 572.90 L 895.50 579.40 L 896.20 586.40 L 896.50 594.00 Z" fill="#fde9d1" fill-rule="nonzero" group-id="2" node-id="62" stroke="#370911" stroke-linecap="butt" stroke-width="14" target-height="144.29999" target-width="116.599976" target-x="779.9" target-y="527.9"></path><path d="M 421.10 600.00 L 420.30 611.80 L 419.40 617.40 L 416.50 628.20 L 412.30 638.10 L 407.00 647.00 L 404.00 651.10 L 397.20 658.20 L 393.50 661.40 L 389.50 664.10 L 385.50 666.50 L 381.20 668.50 L 376.80 670.10 L 372.30 671.20 L 367.60 671.90 L 362.80 672.20 L 358.00 671.90 L 353.30 671.00 L 348.80 669.70 L 344.30 667.80 L 340.00 665.60 L 335.90 662.90 L 331.90 659.70 L 324.50 652.30 L 318.00 643.60 L 315.10 638.70 L 311.80 632.00 L 308.90 624.90 L 306.60 617.40 L 305.30 611.70 L 303.70 600.00 L 303.50 594.00 L 303.80 586.40 L 304.50 579.40 L 305.60 572.90 L 307.20 566.90 L 309.20 560.80 L 311.70 555.40 L 314.50 550.40 L 317.60 546.00 L 321.20 541.80 L 325.20 538.20 L 329.40 535.20 L 334.10 532.60 L 338.90 530.60 L 344.20 529.10 L 349.80 528.20 L 355.80 527.90 L 360.60 528.10 L 365.40 528.80 L 370.20 529.90 L 375.00 531.50 L 379.60 533.50 L 388.40 538.60 L 392.70 541.80 L 400.50 548.90 L 407.40 557.40 L 410.40 562.00 L 413.00 566.80 L 415.40 571.90 L 417.40 577.20 L 419.00 582.60 L 420.10 588.20 L 420.80 594.00 L 421.10 600.00 Z" fill="#fde9d1" fill-rule="nonzero" group-id="2" node-id="64" stroke="#370911" stroke-linecap="butt" stroke-width="14" target-height="144.29999" target-width="117.600006" target-x="303.5" target-y="527.9"></path><path d="M 843.30 559.30 L 843.00 572.70 L 842.20 585.80 L 840.90 598.70 L 839.10 611.40 L 836.90 623.80 L 834.10 636.30 L 830.90 648.40 L 827.20 660.20 L 823.20 671.80 L 818.70 683.10 L 813.70 694.20 L 808.30 705.00 L 802.60 715.50 L 796.50 725.60 L 790.10 735.30 L 783.20 744.90 L 776.00 754.00 L 768.50 762.70 L 760.70 771.00 L 752.60 778.90 L 744.10 786.50 L 735.30 793.60 L 726.40 800.20 L 717.10 806.40 L 707.60 812.10 L 697.80 817.40 L 687.80 822.10 L 677.70 826.40 L 667.30 830.10 L 656.60 833.30 L 645.90 835.90 L 635.00 838.00 L 623.90 839.50 L 612.60 840.40 L 601.10 840.70 L 589.60 840.40 L 578.30 839.50 L 567.20 838.00 L 556.30 835.90 L 545.60 833.30 L 535.00 830.10 L 524.60 826.40 L 514.40 822.10 L 504.40 817.40 L 494.60 812.10 L 485.10 806.40 L 475.90 800.20 L 466.90 793.60 L 458.10 786.50 L 449.60 778.90 L 441.50 771.00 L 433.70 762.70 L 426.20 754.00 L 419.00 744.90 L 412.10 735.30 L 405.70 725.60 L 399.60 715.50 L 393.90 705.00 L 388.50 694.20 L 383.60 683.10 L 379.10 671.80 L 375.00 660.20 L 371.30 648.40 L 368.10 636.30 L 365.30 623.80 L 363.10 611.40 L 361.30 598.70 L 360.00 585.80 L 359.20 572.70 L 358.90 559.30 L 359.20 545.90 L 360.00 532.80 L 361.30 519.90 L 363.10 507.20 L 365.30 494.80 L 368.10 482.30 L 371.30 470.20 L 375.00 458.40 L 379.10 446.80 L 383.60 435.50 L 388.50 424.40 L 393.90 413.60 L 399.60 403.10 L 405.70 393.00 L 412.10 383.30 L 419.00 373.70 L 426.20 364.60 L 433.70 355.90 L 441.50 347.60 L 449.60 339.70 L 458.10 332.10 L 466.90 325.00 L 475.90 318.40 L 485.10 312.20 L 494.60 306.50 L 504.40 301.20 L 514.40 296.50 L 524.60 292.20 L 535.00 288.50 L 545.60 285.30 L 556.30 282.70 L 567.20 280.60 L 578.30 279.10 L 589.60 278.20 L 601.10 277.90 L 612.60 278.20 L 623.90 279.10 L 635.00 280.60 L 645.90 282.70 L 656.60 285.30 L 667.30 288.50 L 677.70 292.20 L 687.80 296.50 L 697.80 301.20 L 707.60 306.50 L 717.10 312.20 L 726.40 318.40 L 735.30 325.00 L 744.10 332.10 L 752.60 339.70 L 760.70 347.60 L 768.50 355.90 L 776.00 364.60 L 783.20 373.70 L 790.10 383.30 L 796.50 393.00 L 802.60 403.10 L 808.30 413.60 L 813.70 424.40 L 818.70 435.50 L 823.20 446.80 L 827.20 458.40 L 830.90 470.20 L 834.10 482.30 L 836.90 494.80 L 839.10 507.20 L 840.90 519.90 L 842.20 532.80 L 843.00 545.90 L 843.30 559.30 Z" fill="#f9d9d0" fill-rule="nonzero" group-id="2" node-id="66" stroke="#370911" stroke-linecap="butt" stroke-width="14" target-height="562.80005" target-width="484.4" target-x="358.9" target-y="277.9"></path><path d="M 527.00 554.20 L 526.70 558.20 L 526.00 562.00 L 524.80 565.60 L 523.30 569.00 L 521.40 572.10 L 519.10 574.80 L 516.50 577.30 L 513.70 579.40 L 510.60 581.10 L 507.30 582.30 L 503.80 583.10 L 500.10 583.40 L 496.40 583.10 L 493.00 582.30 L 489.70 581.10 L 486.60 579.40 L 483.70 577.30 L 481.10 574.80 L 478.90 572.10 L 477.00 569.00 L 475.40 565.60 L 474.20 562.00 L 473.50 558.20 L 473.30 554.20 L 473.50 550.20 L 474.20 546.40 L 475.40 542.90 L 477.00 539.50 L 478.90 536.40 L 481.10 533.60 L 483.70 531.10 L 486.60 529.10 L 489.70 527.40 L 493.00 526.10 L 496.40 525.30 L 500.10 525.10 L 503.80 525.30 L 507.30 526.10 L 510.60 527.40 L 513.70 529.10 L 516.50 531.10 L 519.10 533.60 L 521.40 536.40 L 523.30 539.50 L 524.80 542.90 L 526.00 546.40 L 526.70 550.20 L 527.00 554.20 Z" fill="#271d1f" fill-rule="nonzero" group-id="2" node-id="68" stroke="none" target-height="58.30005" target-width="53.700012" target-x="473.3" target-y="525.1"></path><path d="M 719.50 554.20 L 719.20 558.20 L 718.50 562.00 L 717.40 565.60 L 715.80 569.00 L 713.90 572.10 L 711.60 574.80 L 709.00 577.30 L 706.20 579.40 L 703.10 581.10 L 699.80 582.30 L 696.30 583.10 L 692.60 583.40 L 688.90 583.10 L 685.50 582.30 L 682.20 581.10 L 679.10 579.40 L 676.20 577.30 L 673.60 574.80 L 671.40 572.10 L 669.50 569.00 L 667.90 565.60 L 666.70 562.00 L 666.00 558.20 L 665.80 554.20 L 666.00 550.20 L 666.70 546.40 L 667.90 542.90 L 669.50 539.50 L 671.40 536.40 L 673.60 533.60 L 676.20 531.10 L 679.10 529.10 L 682.20 527.40 L 685.50 526.10 L 688.90 525.30 L 692.60 525.10 L 696.30 525.30 L 699.80 526.10 L 703.10 527.40 L 706.20 529.10 L 709.00 531.10 L 711.60 533.60 L 713.90 536.40 L 715.80 539.50 L 717.40 542.90 L 718.50 546.40 L 719.20 550.20 L 719.50 554.20 Z" fill="#271d1f" fill-rule="nonzero" group-id="2" node-id="70" stroke="none" target-height="58.30005" target-width="53.700012" target-x="665.8" target-y="525.1"></path><path d="M 672.80 684.30 L 672.50 687.60 L 671.90 690.70 L 670.70 693.80 L 669.10 696.90 L 667.10 699.70 L 662.00 705.20 L 658.70 707.80 L 654.20 710.90 L 648.90 713.70 L 643.00 716.40 L 636.90 718.60 L 630.20 720.50 L 623.00 722.00 L 615.70 723.10 L 608.10 723.80 L 600.00 724.10 L 592.00 723.80 L 584.30 723.10 L 577.00 722.00 L 569.80 720.50 L 563.20 718.60 L 557.00 716.40 L 551.10 713.70 L 545.90 710.90 L 541.30 707.80 L 535.30 702.50 L 531.00 696.90 L 529.30 693.80 L 528.20 690.70 L 527.50 687.60 L 527.30 684.30 L 527.50 681.10 L 528.20 677.90 L 529.30 674.80 L 531.00 671.80 L 535.30 666.20 L 538.00 663.50 L 541.30 660.90 L 545.90 657.80 L 551.10 654.90 L 557.00 652.20 L 563.20 650.00 L 569.80 648.20 L 577.00 646.60 L 584.30 645.50 L 592.00 644.80 L 600.00 644.60 L 608.10 644.80 L 615.70 645.50 L 623.00 646.60 L 630.20 648.20 L 636.90 650.00 L 643.00 652.20 L 648.90 654.90 L 654.20 657.80 L 658.70 660.90 L 662.00 663.50 L 667.10 668.90 L 670.70 674.80 L 671.90 677.90 L 672.50 681.10 L 672.80 684.30 Z" fill="#ee8685" fill-rule="nonzero" group-id="2" node-id="72" stroke="#310304" stroke-linecap="butt" stroke-width="10" target-height="79.5" target-width="145.5" target-x="527.3" target-y="644.6"></path><path d="M 545.90 705.80 L 555.80 710.80 L 561.50 713.10 L 573.70 716.60 L 587.20 718.90 L 594.30 719.60 L 601.60 719.80 L 616.50 719.10 L 622.70 718.20 L 628.90 717.00 L 634.50 715.50 L 639.70 713.60 L 644.70 711.30 L 649.50 708.70 L 654.10 705.80 L 653.00 703.30 L 651.60 701.00 L 649.70 698.90 L 647.40 696.80 L 644.70 694.90 L 641.10 693.00 L 636.90 691.30 L 632.00 689.80 L 626.30 688.50 L 618.80 687.40 L 610.30 686.70 L 600.80 686.50 L 589.60 686.70 L 579.80 687.50 L 573.40 688.40 L 563.00 690.80 L 558.20 692.60 L 554.40 694.60 L 551.30 696.80 L 549.30 698.80 L 547.70 700.90 L 546.60 703.20 L 545.90 705.80 Z" fill="#e5415b" fill-rule="nonzero" group-id="2" node-id="74" stroke="none" target-height="33.299988" target-width="108.19995" target-x="545.9" target-y="686.5"></path><path d="M 603.90 672.70 L 625.70 672.50 L 642.30 671.50 L 655.40 669.60 L 661.00 668.10 L 666.20 666.30 L 664.20 661.20 L 661.30 657.00 L 659.20 655.20 L 656.60 653.50 L 653.80 652.20 L 650.10 651.00 L 640.60 649.30 L 627.20 648.50 L 615.40 648.50 L 600.00 649.10 L 585.30 648.60 L 574.00 648.50 L 563.70 649.00 L 556.10 649.80 L 547.60 651.80 L 541.80 654.50 L 537.70 657.90 L 535.50 660.90 L 533.80 664.30 L 540.00 667.40 L 547.50 669.60 L 557.50 671.20 L 565.90 671.90 L 576.90 672.40 L 603.90 672.70 Z" fill="#ffffff" fill-rule="nonzero" group-id="2" node-id="76" stroke="none" target-height="24.200012" target-width="132.40002" target-x="533.8" target-y="648.5"></path><path d="M 499.70 643.10 L 499.40 648.20 L 498.70 653.10 L 497.50 657.80 L 495.80 662.30 L 493.70 666.70 L 491.20 670.80 L 488.40 674.50 L 485.20 678.10 L 481.60 681.30 L 477.90 684.10 L 473.80 686.60 L 469.40 688.70 L 464.90 690.40 L 460.20 691.60 L 455.30 692.30 L 450.20 692.60 L 445.00 692.30 L 440.10 691.60 L 435.40 690.40 L 430.90 688.70 L 426.50 686.60 L 422.40 684.10 L 418.70 681.30 L 415.10 678.10 L 411.90 674.50 L 409.10 670.80 L 406.60 666.70 L 404.50 662.30 L 402.80 657.80 L 401.60 653.10 L 400.90 648.20 L 400.60 643.10 L 400.90 637.90 L 401.60 633.00 L 402.80 628.30 L 404.50 623.80 L 406.60 619.40 L 409.10 615.30 L 411.90 611.60 L 415.10 608.00 L 418.70 604.80 L 422.40 602.00 L 426.50 599.50 L 430.90 597.40 L 435.40 595.70 L 440.10 594.50 L 445.00 593.80 L 450.20 593.50 L 455.30 593.80 L 460.20 594.50 L 464.90 595.70 L 469.40 597.40 L 473.80 599.50 L 477.90 602.00 L 481.60 604.80 L 485.20 608.00 L 488.40 611.60 L 491.20 615.30 L 493.70 619.40 L 495.80 623.80 L 497.50 628.30 L 498.70 633.00 L 499.40 637.90 L 499.70 643.10 Z" fill="#de717e" fill-rule="nonzero" group-id="2" node-id="78" stroke="none" target-height="99.099976" target-width="99.100006" target-x="400.6" target-y="593.5"></path><path d="M 799.40 643.10 L 799.10 648.20 L 798.40 653.10 L 797.20 657.80 L 795.50 662.30 L 793.40 666.70 L 790.90 670.80 L 788.10 674.50 L 784.90 678.10 L 781.30 681.30 L 777.60 684.10 L 773.50 686.60 L 769.10 688.70 L 764.60 690.40 L 759.90 691.60 L 755.00 692.30 L 749.90 692.60 L 744.70 692.30 L 739.80 691.60 L 735.10 690.40 L 730.60 688.70 L 726.20 686.60 L 722.10 684.10 L 718.40 681.30 L 714.80 678.10 L 711.60 674.50 L 708.80 670.80 L 706.30 666.70 L 704.20 662.30 L 702.50 657.80 L 701.30 653.10 L 700.60 648.20 L 700.30 643.10 L 700.60 637.90 L 701.30 633.00 L 702.50 628.30 L 704.20 623.80 L 706.30 619.40 L 708.80 615.30 L 711.60 611.60 L 714.80 608.00 L 718.40 604.80 L 722.10 602.00 L 726.20 599.50 L 730.60 597.40 L 735.10 595.70 L 739.80 594.50 L 744.70 593.80 L 749.90 593.50 L 755.00 593.80 L 759.90 594.50 L 764.60 595.70 L 769.10 597.40 L 773.50 599.50 L 777.60 602.00 L 781.30 604.80 L 784.90 608.00 L 788.10 611.60 L 790.90 615.30 L 793.40 619.40 L 795.50 623.80 L 797.20 628.30 L 798.40 633.00 L 799.10 637.90 L 799.40 643.10 Z" fill="#de717e" fill-rule="nonzero" group-id="2" node-id="80" stroke="none" target-height="99.099976" target-width="99.10004" target-x="700.3" target-y="593.5"></path><path d="M 601.40 204.90 L 590.90 205.20 L 580.30 205.90 L 566.30 207.40 L 552.90 209.40 L 540.10 211.90 L 527.80 214.90 L 515.50 218.40 L 503.70 222.40 L 492.50 226.70 L 481.80 231.30 L 471.20 236.50 L 461.10 241.80 L 451.50 247.50 L 442.40 253.30 L 425.00 266.00 L 417.10 272.50 L 402.30 286.10 L 395.50 293.10 L 383.50 306.90 L 376.10 316.50 L 369.60 325.70 L 364.10 334.70 L 358.90 343.90 L 354.70 352.60 L 351.40 360.70 L 347.60 371.50 L 344.30 382.30 L 341.50 393.20 L 339.10 404.20 L 336.50 419.00 L 334.60 433.70 L 333.30 448.20 L 332.60 462.80 L 332.40 477.00 L 332.60 490.80 L 334.10 517.70 L 335.30 530.10 L 337.60 548.20 L 340.10 564.00 L 345.40 590.60 L 351.80 615.90 L 353.00 619.20 L 353.90 620.80 L 355.10 621.70 L 355.90 622.00 L 356.90 621.90 L 359.20 620.10 L 362.30 614.90 L 364.70 609.50 L 367.70 600.70 L 370.70 590.60 L 374.30 576.10 L 376.90 564.20 L 378.80 553.50 L 380.10 543.90 L 381.50 525.60 L 381.40 506.90 L 380.00 482.50 L 379.90 478.10 L 380.70 471.30 L 381.70 468.30 L 383.20 465.70 L 385.20 463.40 L 389.80 459.60 L 393.60 457.50 L 394.60 456.40 L 405.30 435.00 L 407.90 429.20 L 411.90 417.50 L 414.20 408.50 L 418.10 390.80 L 421.80 377.10 L 426.00 367.30 L 430.30 360.70 L 435.80 355.00 L 439.00 352.60 L 442.70 350.40 L 446.90 348.50 L 451.80 346.80 L 457.10 345.40 L 471.50 342.50 L 498.00 339.10 L 529.70 336.50 L 564.70 334.80 L 601.40 334.00 Z" fill="#3c211a" fill-rule="nonzero" group-id="2" node-id="82" stroke="none" target-height="417.1" target-width="269.00003" target-x="332.4" target-y="204.9"></path><path d="M 601.40 204.90 L 622.50 205.90 L 636.40 207.40 L 649.80 209.40 L 662.70 211.90 L 675.00 214.90 L 687.30 218.40 L 699.00 222.40 L 710.20 226.70 L 720.90 231.30 L 731.60 236.50 L 741.70 241.90 L 751.30 247.50 L 760.40 253.40 L 777.80 266.10 L 785.70 272.60 L 800.50 286.20 L 807.20 293.10 L 819.30 306.90 L 826.70 316.50 L 833.10 325.80 L 838.70 334.70 L 843.80 344.00 L 848.00 352.60 L 851.40 360.70 L 855.10 371.50 L 858.40 382.30 L 861.30 393.20 L 863.60 404.20 L 866.20 419.00 L 868.10 433.70 L 869.40 448.30 L 870.10 462.90 L 870.40 477.10 L 870.20 490.90 L 868.60 517.70 L 867.40 530.10 L 865.10 548.20 L 862.60 564.00 L 857.40 590.60 L 851.00 615.90 L 849.80 619.20 L 848.80 620.80 L 847.70 621.80 L 846.80 622.10 L 845.80 621.90 L 843.50 620.10 L 840.40 615.00 L 838.10 609.60 L 835.10 600.80 L 832.10 590.60 L 828.40 576.20 L 825.80 564.20 L 823.90 553.50 L 822.70 543.90 L 821.30 525.70 L 821.30 507.00 L 822.80 482.50 L 822.80 478.20 L 822.00 471.30 L 821.10 468.30 L 819.60 465.70 L 817.60 463.50 L 813.00 459.60 L 809.20 457.60 L 808.10 456.50 L 797.50 435.10 L 794.90 429.30 L 790.80 417.50 L 788.50 408.50 L 784.70 390.80 L 780.90 377.10 L 776.70 367.30 L 772.50 360.70 L 766.90 355.00 L 763.70 352.60 L 760.10 350.40 L 755.90 348.50 L 751.00 346.80 L 745.70 345.40 L 731.30 342.50 L 704.70 339.10 L 673.10 336.50 L 638.00 334.80 L 601.40 334.00 Z" fill="#3c211a" fill-rule="nonzero" group-id="2" node-id="84" stroke="none" target-height="417.19998" target-width="269" target-x="601.4" target-y="204.9"></path><path d="M 471.30 872.60 L 474.00 881.50 L 475.40 885.20 L 477.20 889.00 L 479.30 892.50 L 481.60 895.20 L 483.40 896.70 L 485.30 897.50 L 487.20 897.90 L 573.30 897.00 L 617.60 897.30 L 656.10 898.30 L 677.90 897.60 L 698.30 895.90 L 707.60 894.70 L 720.30 892.10 L 724.10 890.90 L 729.20 888.50 L 730.50 887.40 L 731.40 885.20 L 731.40 853.90 L 740.40 855.90 L 749.20 858.60 L 758.60 862.70 L 763.00 865.40 L 766.90 868.50 L 769.20 870.90 L 771.10 873.40 L 772.60 876.10 L 773.90 879.60 L 775.40 886.00 L 775.80 890.60 L 775.80 894.90 L 775.20 906.40 L 775.70 911.40 L 777.20 914.70 L 779.00 916.30 L 783.00 918.90 L 794.60 924.80 L 857.90 954.00 L 876.00 963.50 L 887.30 969.90 L 892.10 972.10 L 909.20 978.30 L 936.60 986.80 L 987.90 1000.60 L 1025.20 1009.90 L 1098.30 1027.10 L 1171.60 1043.40 L 1241.30 1056.90 L 1265.60 1393.70 L -18.00 1339.40 L -8.60 1071.90 L 106.40 1045.40 L 223.10 1019.40 L 288.10 1005.80 L 310.80 1001.70 L 319.50 1000.40 L 328.60 999.50 L 333.70 998.10 L 335.70 996.90 L 337.00 995.70 L 337.80 994.30 L 338.50 991.90 L 338.60 989.20 L 337.70 980.20 L 337.80 977.10 L 339.00 973.20 L 340.20 971.20 L 341.70 969.50 L 343.90 967.80 L 346.90 966.10 L 354.40 963.60 L 381.10 958.20 L 402.50 952.40 L 438.10 939.90 L 444.20 938.10 L 447.50 936.50 L 448.80 935.20 L 449.80 933.50 L 450.80 931.10 L 451.50 928.20 L 451.90 924.80 L 451.70 913.80 L 450.30 897.20 L 450.20 892.80 L 450.90 888.10 L 451.60 886.70 L 454.00 884.00 L 457.10 881.30 L 463.60 876.90 L 471.30 872.60 Z" fill="#040000" fill-rule="nonzero" group-id="2" node-id="86" stroke="#360810" stroke-linecap="round" stroke-width="14" target-height="539.7999" target-width="1283.6" target-x="-18" target-y="853.9"></path><path d="M 391.50 276.60 L 389.80 268.90 L 389.30 265.30 L 389.40 256.70 L 390.10 252.10 L 392.10 246.20 L 393.70 243.30 L 395.60 240.60 L 398.00 238.10 L 400.90 235.80 L 404.20 233.80 L 408.10 232.10 L 412.90 230.70 L 421.50 229.00 L 428.90 227.90 L 435.20 227.40 L 441.50 227.20 L 450.80 227.70 L 456.60 228.70 L 463.10 230.70 L 463.90 228.70 L 466.70 225.90 L 469.30 224.30 L 472.50 222.90 L 477.20 221.50 L 481.70 220.70 L 488.40 220.20 L 492.60 220.40 L 497.40 221.50 L 497.20 217.60 L 498.10 212.20 L 499.30 209.40 L 500.50 207.70 L 502.00 206.20 L 504.00 204.80 L 506.20 203.90 L 509.00 203.30 L 527.50 203.50 L 538.30 203.20 L 540.00 195.10 L 541.10 191.40 L 542.80 187.20 L 544.90 183.10 L 547.60 179.00 L 552.30 174.00 L 555.10 171.80 L 558.20 170.00 L 561.70 168.50 L 565.70 167.40 L 569.80 166.70 L 574.50 166.60 L 579.90 167.10 L 586.20 168.30 L 591.90 169.90 L 597.00 171.80 L 602.00 174.10 L 610.40 179.20 L 614.30 182.10 L 620.50 187.80 L 627.30 196.00 L 629.80 199.60 L 632.60 204.40 L 636.90 201.60 L 643.90 198.10 L 651.60 195.90 L 658.40 195.30 L 661.90 195.60 L 665.50 196.40 L 669.30 197.70 L 703.50 213.00 L 713.10 208.80 L 717.60 207.20 L 728.10 204.30 L 733.60 203.60 L 737.20 203.40 L 744.00 204.20 L 747.20 205.20 L 750.00 206.70 L 752.50 208.70 L 755.20 211.70 L 759.30 217.90 L 761.60 222.90 L 763.20 227.70 L 764.30 232.50 L 765.30 240.40 L 765.40 245.40 L 768.30 243.60 L 770.50 242.70 L 773.10 242.10 L 776.20 241.80 L 780.60 242.60 L 785.60 244.90 L 788.20 246.90 L 791.00 249.70 L 797.30 257.00 L 801.90 263.20 L 805.80 269.00 L 810.00 276.60 L 814.60 272.40 L 816.90 270.90 L 819.60 269.50 L 822.50 268.60 L 825.60 268.20 L 827.70 268.40 L 829.90 269.00 L 832.10 270.00 L 834.10 271.50 L 836.30 273.60 L 838.50 276.60 L 840.40 279.80 L 842.30 284.00 L 844.30 289.50 L 847.60 300.50 L 849.90 309.00 L 852.80 322.00 L 853.70 329.90 L 853.40 334.70 L 859.00 339.40 L 863.00 343.40 L 867.00 348.00 L 871.60 353.90 L 877.10 362.90 L 879.80 368.30 L 882.10 373.70 L 884.00 379.70 L 885.50 386.20 L 886.70 396.30 L 886.40 407.50 L 885.30 416.70 L 884.00 424.70 L 880.40 438.60 L 876.40 449.50 L 873.00 456.50 L 870.10 461.60 L 867.20 465.90 L 863.20 470.50 L 861.10 477.50 L 857.60 484.00 L 855.10 487.30 L 851.90 490.50 L 846.60 494.00 L 843.30 495.50 L 839.90 496.50 L 835.90 497.20 L 831.40 497.50 L 826.80 497.20 L 822.40 496.40 L 818.20 495.20 L 814.10 493.60 L 806.40 489.70 L 801.20 486.10 L 792.40 478.60 L 789.00 475.20 L 782.40 467.50 L 782.70 469.40 L 782.40 470.70 L 781.70 472.10 L 780.30 473.60 L 778.30 475.00 L 774.90 476.40 L 770.90 477.50 L 764.90 478.30 L 758.10 478.60 L 748.80 478.50 L 741.00 477.90 L 729.00 475.90 L 723.60 474.40 L 715.70 471.40 L 710.90 468.70 L 707.80 466.40 L 705.20 464.00 L 702.90 460.70 L 701.90 464.00 L 699.40 468.40 L 697.20 470.70 L 693.40 473.00 L 688.20 474.50 L 684.90 474.70 L 680.90 474.40 L 677.00 473.80 L 672.40 472.50 L 666.80 470.50 L 657.40 466.30 L 650.40 462.70 L 644.30 458.80 L 640.00 455.60 L 636.50 452.40 L 632.60 447.60 L 631.30 444.80 L 628.80 450.40 L 626.60 454.40 L 623.70 458.50 L 619.80 463.00 L 616.90 465.80 L 613.50 468.50 L 609.60 471.10 L 605.40 473.20 L 600.60 475.00 L 595.20 476.40 L 586.60 477.30 L 576.20 476.60 L 549.60 472.70 L 521.20 468.10 L 521.60 463.70 L 521.50 460.80 L 521.00 457.80 L 519.90 454.60 L 518.70 452.60 L 517.20 450.90 L 515.10 449.20 L 512.80 448.00 L 509.70 447.10 L 505.80 446.50 L 501.90 446.50 L 496.90 447.10 L 490.60 448.50 L 483.20 450.70 L 477.20 453.00 L 472.40 455.40 L 467.70 458.20 L 464.10 460.90 L 461.30 463.50 L 456.90 468.90 L 454.20 474.50 L 453.30 479.10 L 452.40 480.20 L 449.20 482.90 L 443.10 485.90 L 439.00 487.20 L 433.40 488.30 L 425.00 488.90 L 419.60 488.90 L 398.30 487.20 L 390.90 486.20 L 383.50 484.60 L 380.10 491.60 L 376.00 498.10 L 373.50 501.40 L 368.60 506.20 L 364.10 509.00 L 361.70 509.90 L 359.20 510.30 L 356.60 510.30 L 352.80 509.00 L 349.20 506.20 L 345.00 500.80 L 343.10 497.20 L 340.60 491.50 L 338.50 485.20 L 336.80 478.70 L 335.70 472.20 L 335.00 465.80 L 334.90 460.10 L 335.20 456.40 L 336.90 449.00 L 336.80 446.60 L 336.10 443.80 L 334.30 439.60 L 321.70 417.30 L 316.70 406.30 L 314.00 396.90 L 313.30 392.10 L 313.20 387.10 L 313.60 382.10 L 314.30 378.40 L 315.50 374.60 L 317.20 370.60 L 319.30 366.60 L 323.90 359.30 L 328.60 352.90 L 333.30 347.10 L 343.00 336.60 L 354.40 326.60 L 365.50 318.70 L 372.50 314.60 L 372.00 305.90 L 372.90 300.00 L 373.90 297.20 L 376.00 293.90 L 380.30 290.10 L 385.40 284.80 L 391.50 276.60 Z" fill="#351c14" fill-rule="nonzero" group-id="2" node-id="88" stroke="none" target-height="343.69998" target-width="573.5" target-x="313.2" target-y="166.6"></path></g></svg>