<?xml version="1.0" standalone="no"?><!DOCTYPE svg PUBLIC "-//W3C//DTD SVG 1.1//EN" "http://www.w3.org/Graphics/SVG/1.1/DTD/svg11.dtd"><svg height="1200" node-id="1" sillyvg="true" template-height="1200" template-width="1200" version="1.1" viewBox="0 0 1200 1200" width="1200" xmlns="http://www.w3.org/2000/svg" xmlns:xlink="http://www.w3.org/1999/xlink"><defs node-id="42"><clipPath id="clip-path" node-id="5"><path d="M 1062.10 -633.30 L 1061.90 -618.60 L 1061.20 -603.90 L 1060.00 -589.40 L 1058.40 -574.90 L 1056.40 -560.60 L 1053.90 -546.20 L 1050.90 -532.10 L 1047.50 -518.00 L 1043.70 -504.10 L 1039.40 -490.30 L 1034.80 -476.60 L 1029.70 -463.10 L 1024.10 -449.80 L 1018.20 -436.70 L 1011.90 -423.70 L 1005.10 -410.90 L 998.00 -398.40 L 990.40 -386.00 L 982.50 -373.90 L 974.10 -362.00 L 965.40 -350.40 L 956.30 -339.00 L 946.90 -327.90 L 937.00 -317.10 L 926.80 -306.50 L 916.20 -296.30 L 905.30 -286.40 L 894.30 -276.90 L 882.90 -267.90 L 871.30 -259.20 L 859.40 -250.80 L 847.30 -242.90 L 834.90 -235.30 L 822.40 -228.20 L 809.60 -221.40 L 796.60 -215.10 L 783.50 -209.10 L 770.20 -203.60 L 756.70 -198.50 L 743.00 -193.80 L 729.20 -189.60 L 715.30 -185.80 L 701.20 -182.40 L 687.10 -179.40 L 672.70 -176.90 L 658.40 -174.90 L 643.90 -173.20 L 629.40 -172.10 L 614.70 -171.40 L 600.00 -171.20 L 585.30 -171.40 L 570.60 -172.10 L 556.10 -173.20 L 541.60 -174.90 L 527.30 -176.90 L 512.90 -179.40 L 498.80 -182.40 L 484.70 -185.80 L 470.80 -189.60 L 457.00 -193.80 L 443.30 -198.50 L 429.80 -203.60 L 416.50 -209.10 L 403.40 -215.10 L 390.40 -221.40 L 377.60 -228.20 L 365.10 -235.30 L 352.70 -242.90 L 340.60 -250.80 L 328.70 -259.20 L 317.10 -267.90 L 305.70 -276.90 L 294.70 -286.40 L 283.80 -296.30 L 273.20 -306.50 L 263.00 -317.10 L 253.10 -327.90 L 243.70 -339.00 L 234.60 -350.40 L 225.90 -362.00 L 217.50 -373.90 L 209.60 -386.00 L 202.00 -398.40 L 194.90 -410.90 L 188.10 -423.70 L 181.80 -436.70 L 175.90 -449.80 L 170.30 -463.10 L 165.20 -476.60 L 160.60 -490.30 L 156.30 -504.10 L 152.50 -518.00 L 149.10 -532.10 L 146.10 -546.20 L 143.60 -560.60 L 141.60 -574.90 L 140.00 -589.40 L 138.80 -603.90 L 138.10 -618.60 L 137.90 -633.30 L 138.10 -648.00 L 138.80 -662.70 L 140.00 -677.20 L 141.60 -691.60 L 143.60 -706.00 L 146.10 -720.30 L 149.10 -734.50 L 152.50 -748.60 L 156.30 -762.50 L 160.60 -776.30 L 165.20 -790.00 L 170.30 -803.50 L 175.90 -816.80 L 181.80 -829.90 L 188.10 -842.90 L 194.90 -855.70 L 202.00 -868.20 L 209.60 -880.50 L 217.50 -892.70 L 225.90 -904.60 L 234.60 -916.20 L 243.70 -927.50 L 253.10 -938.60 L 263.00 -949.50 L 273.20 -960.10 L 283.80 -970.30 L 294.70 -980.20 L 305.70 -989.60 L 317.10 -998.70 L 328.70 -1007.40 L 340.60 -1015.80 L 352.70 -1023.70 L 365.10 -1031.30 L 377.60 -1038.40 L 390.40 -1045.20 L 403.40 -1051.50 L 416.50 -1057.40 L 429.80 -1062.90 L 443.30 -1068.00 L 457.00 -1072.70 L 470.80 -1077.00 L 484.70 -1080.80 L 498.80 -1084.20 L 512.90 -1087.10 L 527.30 -1089.70 L 541.60 -1091.70 L 556.10 -1093.30 L 570.60 -1094.50 L 585.30 -1095.20 L 600.00 -1095.40 L 614.70 -1095.20 L 629.40 -1094.50 L 643.90 -1093.30 L 658.40 -1091.70 L 672.70 -1089.70 L 687.10 -1087.10 L 701.20 -1084.20 L 715.30 -1080.80 L 729.20 -1077.00 L 743.00 -1072.70 L 756.70 -1068.00 L 770.20 -1062.90 L 783.50 -1057.40 L 796.60 -1051.50 L 809.60 -1045.10 L 822.40 -1038.40 L 834.90 -1031.30 L 847.30 -1023.70 L 859.40 -1015.80 L 871.30 -1007.40 L 882.90 -998.70 L 894.30 -989.60 L 905.30 -980.20 L 916.20 -970.30 L 926.80 -960.10 L 937.00 -949.50 L 946.90 -938.60 L 956.30 -927.50 L 965.40 -916.20 L 974.10 -904.60 L 982.50 -892.70 L 990.40 -880.50 L 998.00 -868.20 L 1005.10 -855.70 L 1011.90 -842.90 L 1018.20 -829.90 L 1024.10 -816.80 L 1029.70 -803.50 L 1034.80 -790.00 L 1039.40 -776.30 L 1043.70 -762.50 L 1047.50 -748.60 L 1050.90 -734.50 L 1053.90 -720.30 L 1056.40 -706.00 L 1058.40 -691.60 L 1060.00 -677.20 L 1061.20 -662.70 L 1061.90 -648.00 L 1062.10 -633.30 Z" fill="#000000" fill-rule="nonzero" node-id="45" stroke="none" target-height="924.2" target-width="924.19995" target-x="137.9" target-y="-1095.4"></path></clipPath><clipPath id="clip-path-2" node-id="7"><path d="M 1062.10 600.00 L 1061.90 614.70 L 1061.20 629.40 L 1060.00 643.90 L 1058.40 658.40 L 1056.40 672.70 L 1053.90 687.10 L 1050.90 701.20 L 1047.50 715.30 L 1043.70 729.20 L 1039.40 743.00 L 1034.80 756.70 L 1029.70 770.20 L 1024.10 783.50 L 1018.20 796.60 L 1011.90 809.60 L 1005.10 822.40 L 998.00 834.90 L 990.40 847.30 L 982.50 859.40 L 974.10 871.30 L 965.40 882.90 L 956.30 894.30 L 946.90 905.30 L 937.00 916.20 L 926.80 926.80 L 916.20 937.00 L 905.30 946.90 L 894.30 956.30 L 882.90 965.40 L 871.30 974.10 L 859.40 982.50 L 847.30 990.40 L 834.90 998.00 L 822.40 1005.10 L 809.60 1011.90 L 796.60 1018.20 L 783.50 1024.10 L 770.20 1029.70 L 756.70 1034.80 L 743.00 1039.40 L 729.20 1043.70 L 715.30 1047.50 L 701.20 1050.90 L 687.10 1053.90 L 672.70 1056.40 L 658.40 1058.40 L 643.90 1060.00 L 629.40 1061.20 L 614.70 1061.90 L 600.00 1062.10 L 585.30 1061.90 L 570.60 1061.20 L 556.10 1060.00 L 541.60 1058.40 L 527.30 1056.40 L 512.90 1053.90 L 498.80 1050.90 L 484.70 1047.50 L 470.80 1043.70 L 457.00 1039.40 L 443.30 1034.80 L 429.80 1029.70 L 416.50 1024.10 L 403.40 1018.20 L 390.40 1011.90 L 377.60 1005.10 L 365.10 998.00 L 352.70 990.40 L 340.60 982.50 L 328.70 974.10 L 317.10 965.40 L 305.70 956.30 L 294.70 946.90 L 283.80 937.00 L 273.20 926.80 L 263.00 916.20 L 253.10 905.30 L 243.70 894.30 L 234.60 882.90 L 225.90 871.30 L 217.50 859.40 L 209.60 847.30 L 202.00 834.90 L 194.90 822.40 L 188.10 809.60 L 181.80 796.60 L 175.90 783.50 L 170.30 770.20 L 165.20 756.70 L 160.60 743.00 L 156.30 729.20 L 152.50 715.30 L 149.10 701.20 L 146.10 687.10 L 143.60 672.70 L 141.60 658.40 L 140.00 643.90 L 138.80 629.40 L 138.10 614.70 L 137.90 600.00 L 138.10 585.30 L 138.80 570.60 L 140.00 556.10 L 141.60 541.60 L 143.60 527.30 L 146.10 512.90 L 149.10 498.80 L 152.50 484.70 L 156.30 470.80 L 160.60 457.00 L 165.20 443.30 L 170.30 429.80 L 175.90 416.50 L 181.80 403.40 L 188.10 390.40 L 194.90 377.60 L 202.00 365.10 L 209.60 352.70 L 217.50 340.60 L 225.90 328.70 L 234.60 317.10 L 243.70 305.70 L 253.10 294.70 L 263.00 283.80 L 273.20 273.20 L 283.80 263.00 L 294.70 253.10 L 305.70 243.70 L 317.10 234.60 L 328.70 225.90 L 340.60 217.50 L 352.70 209.60 L 365.10 202.00 L 377.60 194.90 L 390.40 188.10 L 403.40 181.80 L 416.50 175.90 L 429.80 170.30 L 443.30 165.20 L 457.00 160.60 L 470.80 156.30 L 484.70 152.50 L 498.80 149.10 L 512.90 146.10 L 527.30 143.60 L 541.60 141.60 L 556.10 140.00 L 570.60 138.80 L 585.30 138.10 L 600.00 137.90 L 614.70 138.10 L 629.40 138.80 L 643.90 140.00 L 658.40 141.60 L 672.70 143.60 L 687.10 146.10 L 701.20 149.10 L 715.30 152.50 L 729.20 156.30 L 743.00 160.60 L 756.70 165.20 L 770.20 170.30 L 783.50 175.90 L 796.60 181.80 L 809.60 188.10 L 822.40 194.90 L 834.90 202.00 L 847.30 209.60 L 859.40 217.50 L 871.30 225.90 L 882.90 234.60 L 894.30 243.70 L 905.30 253.10 L 916.20 263.00 L 926.80 273.20 L 937.00 283.80 L 946.90 294.70 L 956.30 305.70 L 965.40 317.10 L 974.10 328.70 L 982.50 340.60 L 990.40 352.70 L 998.00 365.10 L 1005.10 377.60 L 1011.90 390.40 L 1018.20 403.40 L 1024.10 416.50 L 1029.70 429.80 L 1034.80 443.30 L 1039.40 457.00 L 1043.70 470.80 L 1047.50 484.70 L 1050.90 498.80 L 1053.90 512.90 L 1056.40 527.30 L 1058.40 541.60 L 1060.00 556.10 L 1061.20 570.60 L 1061.90 585.30 L 1062.10 600.00 Z" fill="#000000" fill-rule="nonzero" node-id="49" stroke="none" target-height="924.19995" target-width="924.19995" target-x="137.9" target-y="137.9"></path></clipPath><clipPath id="clip-path-3" node-id="9"><path d="M -185.10 600.00 L -185.30 614.70 L -186.00 629.40 L -187.20 643.90 L -188.80 658.40 L -190.90 672.70 L -193.40 687.10 L -196.30 701.20 L -199.70 715.30 L -203.50 729.20 L -207.80 743.00 L -212.50 756.70 L -217.60 770.20 L -223.10 783.50 L -229.00 796.60 L -235.40 809.60 L -242.10 822.40 L -249.30 834.90 L -256.80 847.30 L -264.70 859.40 L -273.10 871.30 L -281.80 882.90 L -290.90 894.30 L -300.40 905.30 L -310.20 916.20 L -320.50 926.80 L -331.00 937.00 L -341.90 946.90 L -353.00 956.30 L -364.30 965.40 L -376.00 974.10 L -387.90 982.50 L -400.00 990.40 L -412.30 998.00 L -424.90 1005.10 L -437.60 1011.90 L -450.60 1018.20 L -463.70 1024.10 L -477.10 1029.70 L -490.50 1034.80 L -504.20 1039.40 L -518.00 1043.70 L -531.90 1047.50 L -546.00 1050.90 L -560.20 1053.90 L -574.50 1056.40 L -588.90 1058.40 L -603.30 1060.00 L -617.90 1061.20 L -632.50 1061.90 L -647.20 1062.10 L -662.00 1061.90 L -676.60 1061.20 L -691.10 1060.00 L -705.60 1058.40 L -720.00 1056.40 L -734.30 1053.90 L -748.50 1050.90 L -762.50 1047.50 L -776.40 1043.70 L -790.20 1039.40 L -803.90 1034.80 L -817.40 1029.70 L -830.70 1024.10 L -843.90 1018.20 L -856.80 1011.90 L -869.60 1005.10 L -882.20 998.00 L -894.50 990.40 L -906.60 982.50 L -918.50 974.10 L -930.10 965.40 L -941.50 956.30 L -952.60 946.90 L -963.40 937.00 L -974.00 926.80 L -984.30 916.20 L -994.10 905.30 L -1003.60 894.30 L -1012.70 882.90 L -1021.40 871.30 L -1029.70 859.40 L -1037.70 847.30 L -1045.20 834.90 L -1052.30 822.40 L -1059.10 809.60 L -1065.40 796.60 L -1071.40 783.50 L -1076.90 770.20 L -1082.00 756.70 L -1086.70 743.00 L -1090.90 729.20 L -1094.80 715.30 L -1098.10 701.20 L -1101.10 687.10 L -1103.60 672.70 L -1105.70 658.40 L -1107.30 643.90 L -1108.40 629.40 L -1109.10 614.70 L -1109.40 600.00 L -1109.10 585.30 L -1108.40 570.60 L -1107.30 556.10 L -1105.70 541.60 L -1103.60 527.30 L -1101.10 512.90 L -1098.10 498.80 L -1094.80 484.70 L -1090.90 470.80 L -1086.70 457.00 L -1082.00 443.30 L -1076.90 429.80 L -1071.40 416.50 L -1065.40 403.40 L -1059.10 390.40 L -1052.30 377.60 L -1045.20 365.10 L -1037.70 352.70 L -1029.70 340.60 L -1021.40 328.70 L -1012.70 317.10 L -1003.60 305.70 L -994.10 294.70 L -984.30 283.80 L -974.00 273.20 L -963.40 263.00 L -952.60 253.10 L -941.50 243.70 L -930.10 234.60 L -918.50 225.90 L -906.60 217.50 L -894.50 209.60 L -882.20 202.00 L -869.60 194.90 L -856.80 188.10 L -843.90 181.80 L -830.70 175.90 L -817.40 170.30 L -803.90 165.20 L -790.20 160.60 L -776.40 156.30 L -762.50 152.50 L -748.50 149.10 L -734.30 146.10 L -720.00 143.60 L -705.60 141.60 L -691.10 140.00 L -676.60 138.80 L -662.00 138.10 L -647.20 137.90 L -632.50 138.10 L -617.90 138.80 L -603.30 140.00 L -588.90 141.60 L -574.50 143.60 L -560.20 146.10 L -546.00 149.10 L -531.90 152.50 L -518.00 156.30 L -504.20 160.60 L -490.50 165.20 L -477.10 170.30 L -463.70 175.90 L -450.60 181.80 L -437.60 188.10 L -424.90 194.90 L -412.30 202.00 L -400.00 209.60 L -387.90 217.50 L -376.00 225.90 L -364.30 234.60 L -353.00 243.70 L -341.90 253.10 L -331.00 263.00 L -320.50 273.20 L -310.20 283.80 L -300.40 294.70 L -290.90 305.70 L -281.80 317.10 L -273.10 328.70 L -264.70 340.60 L -256.80 352.70 L -249.30 365.10 L -242.10 377.60 L -235.40 390.40 L -229.00 403.40 L -223.10 416.50 L -217.60 429.80 L -212.50 443.30 L -207.80 457.00 L -203.50 470.80 L -199.70 484.70 L -196.30 498.80 L -193.40 512.90 L -190.90 527.30 L -188.80 541.60 L -187.20 556.10 L -186.00 570.60 L -185.30 585.30 L -185.10 600.00 Z" fill="#000000" fill-rule="nonzero" node-id="53" stroke="none" target-height="924.19995" target-width="924.30005" target-x="-1109.4" target-y="137.9"></path></clipPath></defs><path d="M 1062.10 600.00 L 1061.90 614.70 L 1061.20 629.40 L 1060.00 643.90 L 1058.40 658.40 L 1056.40 672.70 L 1053.90 687.10 L 1050.90 701.20 L 1047.50 715.30 L 1043.70 729.20 L 1039.40 743.00 L 1034.80 756.70 L 1029.70 770.20 L 1024.10 783.50 L 1018.20 796.60 L 1011.90 809.60 L 1005.10 822.40 L 998.00 834.90 L 990.40 847.30 L 982.50 859.40 L 974.10 871.30 L 965.40 882.90 L 956.30 894.30 L 946.90 905.30 L 937.00 916.20 L 926.80 926.80 L 916.20 937.00 L 905.30 946.90 L 894.30 956.30 L 882.90 965.40 L 871.30 974.10 L 859.40 982.50 L 847.30 990.40 L 834.90 998.00 L 822.40 1005.10 L 809.60 1011.90 L 796.60 1018.20 L 783.50 1024.10 L 770.20 1029.70 L 756.70 1034.80 L 743.00 1039.40 L 729.20 1043.70 L 715.30 1047.50 L 701.20 1050.90 L 687.10 1053.90 L 672.70 1056.40 L 658.40 1058.40 L 643.90 1060.00 L 629.40 1061.20 L 614.70 1061.90 L 600.00 1062.10 L 585.30 1061.90 L 570.60 1061.20 L 556.10 1060.00 L 541.60 1058.40 L 527.30 1056.40 L 512.90 1053.90 L 498.80 1050.90 L 484.70 1047.50 L 470.80 1043.70 L 457.00 1039.40 L 443.30 1034.80 L 429.80 1029.70 L 416.50 1024.10 L 403.40 1018.20 L 390.40 1011.90 L 377.60 1005.10 L 365.10 998.00 L 352.70 990.40 L 340.60 982.50 L 328.70 974.10 L 317.10 965.40 L 305.70 956.30 L 294.70 946.90 L 283.80 937.00 L 273.20 926.80 L 263.00 916.20 L 253.10 905.30 L 243.70 894.30 L 234.60 882.90 L 225.90 871.30 L 217.50 859.40 L 209.60 847.30 L 202.00 834.90 L 194.90 822.40 L 188.10 809.60 L 181.80 796.60 L 175.90 783.50 L 170.30 770.20 L 165.20 756.70 L 160.60 743.00 L 156.30 729.20 L 152.50 715.30 L 149.10 701.20 L 146.10 687.10 L 143.60 672.70 L 141.60 658.40 L 140.00 643.90 L 138.80 629.40 L 138.10 614.70 L 137.90 600.00 L 138.10 585.30 L 138.80 570.60 L 140.00 556.10 L 141.60 541.60 L 143.60 527.30 L 146.10 512.90 L 149.10 498.80 L 152.50 484.70 L 156.30 470.80 L 160.60 457.00 L 165.20 443.30 L 170.30 429.80 L 175.90 416.50 L 181.80 403.40 L 188.10 390.40 L 194.90 377.60 L 202.00 365.10 L 209.60 352.70 L 217.50 340.60 L 225.90 328.70 L 234.60 317.10 L 243.70 305.70 L 253.10 294.70 L 263.00 283.80 L 273.20 273.20 L 283.80 263.00 L 294.70 253.10 L 305.70 243.70 L 317.10 234.60 L 328.70 225.90 L 340.60 217.50 L 352.70 209.60 L 365.10 202.00 L 377.60 194.90 L 390.40 188.10 L 403.40 181.80 L 416.50 175.90 L 429.80 170.30 L 443.30 165.20 L 457.00 160.60 L 470.80 156.30 L 484.70 152.50 L 498.80 149.10 L 512.90 146.10 L 527.30 143.60 L 541.60 141.60 L 556.10 140.00 L 570.60 138.80 L 585.30 138.10 L 600.00 137.90 L 614.70 138.10 L 629.40 138.80 L 643.90 140.00 L 658.40 141.60 L 672.70 143.60 L 687.10 146.10 L 701.20 149.10 L 715.30 152.50 L 729.20 156.30 L 743.00 160.60 L 756.70 165.20 L 770.20 170.30 L 783.50 175.90 L 796.60 181.80 L 809.60 188.10 L 822.40 194.90 L 834.90 202.00 L 847.30 209.60 L 859.40 217.50 L 871.30 225.90 L 882.90 234.60 L 894.30 243.70 L 905.30 253.10 L 916.20 263.00 L 926.80 273.20 L 937.00 283.80 L 946.90 294.70 L 956.30 305.70 L 965.40 317.10 L 974.10 328.70 L 982.50 340.60 L 990.40 352.70 L 998.00 365.10 L 1005.10 377.60 L 1011.90 390.40 L 1018.20 403.40 L 1024.10 416.50 L 1029.70 429.80 L 1034.80 443.30 L 1039.40 457.00 L 1043.70 470.80 L 1047.50 484.70 L 1050.90 498.80 L 1053.90 512.90 L 1056.40 527.30 L 1058.40 541.60 L 1060.00 556.10 L 1061.20 570.60 L 1061.90 585.30 L 1062.10 600.00 Z" fill="#786295" fill-rule="nonzero" node-id="57" stroke="none" target-height="924.19995" target-width="924.19995" target-x="137.9" target-y="137.9"></path><g node-id="115"><g clip-path="url(#clip-path)" group-id="1" id="sillyvg_g_0" node-id="59"><path d="M 738.10 -371.90 L 857.70 -247.10 L 753.60 213.50 L 649.40 124.10 L 624.00 -211.40 L 648.80 -268.30 L 738.10 -371.90 Z" fill="#ffffff" fill-rule="nonzero" group-id="1" node-id="61" stroke="#370911" stroke-linecap="butt" stroke-width="14" target-height="585.4" target-width="233.70001" target-x="624" target-y="-371.9"></path><path d="M 1010.30 -210.90 L 1016.90 -203.60 L 1023.40 -195.50 L 1030.00 -186.70 L 1036.50 -177.00 L 1048.50 -157.00 L 1054.40 -146.20 L 1067.60 -119.30 L 1074.70 -103.20 L 1081.70 -86.30 L 1094.70 -52.10 L 1109.60 -8.00 L 1117.80 18.40 L 1125.50 44.60 L 1136.60 85.30 L 1145.10 122.20 L 1153.70 163.80 L 1166.10 230.30 L 1173.60 273.90 L 1186.00 350.10 L 1194.20 403.30 L 662.20 372.00 L 733.20 86.80 L 778.10 -95.10 L 801.30 -190.30 L 817.70 -260.30 L 821.30 -273.70 L 825.00 -285.70 L 828.30 -294.60 L 831.50 -302.40 L 836.40 -311.90 L 839.40 -316.00 L 844.50 -313.90 L 858.40 -307.70 L 891.00 -292.00 L 917.90 -277.70 L 932.20 -269.50 L 946.40 -260.90 L 960.50 -251.70 L 978.70 -238.70 L 995.60 -225.00 L 1003.20 -218.00 L 1010.30 -210.90 Z" fill="#343535" fill-rule="nonzero" group-id="1" node-id="63" stroke="#370911" stroke-linecap="butt" stroke-width="14" target-height="719.3" target-width="531.99994" target-x="662.2" target-y="-316"></path><path d="M 872.40 -278.40 L 874.50 -270.30 L 875.50 -264.20 L 876.50 -254.70 L 877.20 -242.80 L 877.40 -230.30 L 877.30 -216.00 L 875.70 -185.30 L 874.20 -169.20 L 872.30 -152.60 L 869.90 -136.00 L 867.00 -119.50 L 862.30 -98.00 L 859.70 -87.70 L 856.80 -78.20 L 852.20 -65.80 L 840.10 -36.80 L 824.50 -2.60 L 806.40 35.30 L 786.60 75.10 L 746.40 153.60 L 711.70 219.40 L 687.60 264.40 L 712.30 109.00 L 729.00 -0.20 L 744.50 -106.90 L 750.70 -153.30 L 755.40 -191.70 L 757.00 -207.90 L 763.10 -291.90 L 767.40 -347.30 L 794.00 -336.60 L 826.20 -322.50 L 841.20 -315.20 L 852.90 -308.40 L 858.30 -304.30 L 863.10 -298.00 L 868.10 -289.40 L 869.70 -285.80 L 872.40 -278.40 Z" fill="#343535" fill-rule="nonzero" group-id="1" node-id="65" stroke="#370911" stroke-linecap="butt" stroke-width="14" target-height="611.69995" target-width="189.80005" target-x="687.6" target-y="-347.3"></path><path d="M 459.10 -371.90 L 339.50 -247.10 L 443.70 213.50 L 547.80 124.10 L 582.90 -209.80 L 548.50 -268.30 L 459.10 -371.90 Z" fill="#ffffff" fill-rule="nonzero" group-id="1" node-id="67" stroke="#370911" stroke-linecap="butt" stroke-width="14" target-height="585.4" target-width="243.40002" target-x="339.5" target-y="-371.9"></path><path d="M 186.90 -210.90 L 180.40 -203.60 L 173.80 -195.50 L 167.30 -186.70 L 160.80 -177.00 L 148.70 -157.00 L 142.80 -146.20 L 129.70 -119.30 L 122.50 -103.20 L 115.50 -86.30 L 102.50 -52.10 L 87.60 -8.00 L 79.50 18.30 L 71.70 44.60 L 60.60 85.30 L 52.10 122.20 L 43.50 163.80 L 31.20 230.30 L 23.60 273.90 L 11.20 350.10 L 3.10 403.30 L 535.10 372.00 L 464.10 86.80 L 419.10 -95.10 L 395.90 -190.30 L 379.50 -260.30 L 376.00 -273.70 L 372.20 -285.70 L 369.00 -294.60 L 365.70 -302.40 L 360.80 -311.90 L 357.80 -316.00 L 352.70 -313.90 L 338.80 -307.70 L 306.30 -292.00 L 279.30 -277.70 L 265.10 -269.50 L 250.90 -260.90 L 236.70 -251.70 L 218.60 -238.70 L 201.70 -225.00 L 194.00 -218.00 L 186.90 -210.90 Z" fill="#343535" fill-rule="nonzero" group-id="1" node-id="69" stroke="#370911" stroke-linecap="butt" stroke-width="14" target-height="719.3" target-width="532" target-x="3.1" target-y="-316"></path><path d="M 324.80 -278.40 L 322.70 -270.30 L 321.70 -264.20 L 320.70 -254.70 L 320.10 -242.80 L 319.80 -230.30 L 320.00 -216.00 L 321.60 -185.30 L 323.00 -169.20 L 324.90 -152.60 L 327.30 -136.00 L 330.20 -119.50 L 334.90 -98.00 L 337.60 -87.70 L 340.50 -78.20 L 345.00 -65.80 L 357.10 -36.80 L 372.70 -2.60 L 390.90 35.30 L 410.60 75.10 L 450.90 153.60 L 485.50 219.40 L 509.70 264.40 L 485.00 109.00 L 468.20 -0.20 L 452.70 -106.90 L 446.50 -153.30 L 441.90 -191.70 L 440.20 -207.90 L 434.20 -291.90 L 429.80 -347.30 L 403.20 -336.60 L 371.00 -322.50 L 356.10 -315.20 L 344.30 -308.40 L 338.90 -304.30 L 334.10 -298.00 L 329.20 -289.40 L 327.50 -285.80 L 324.80 -278.40 Z" fill="#343535" fill-rule="nonzero" group-id="1" node-id="71" stroke="#370911" stroke-linecap="butt" stroke-width="14" target-height="611.69995" target-width="189.90002" target-x="319.8" target-y="-347.3"></path><path d="M 528.20 117.70 L 600.10 264.40 L 671.80 122.80 L 623.00 -170.00 L 575.10 -170.80 L 528.20 117.70 Z" fill="#343535" fill-rule="nonzero" group-id="1" node-id="73" stroke="#370911" stroke-linecap="butt" stroke-width="14" target-height="435.2" target-width="143.59998" target-x="528.2" target-y="-170.8"></path></g></g><g node-id="116"><g clip-path="url(#clip-path-2)" group-id="2" id="sillyvg_g_1" node-id="76"><path d="M 346.60 897.30 L 357.90 906.00 L 369.60 914.40 L 381.50 922.40 L 393.70 929.90 L 406.20 937.00 L 418.90 943.70 L 429.30 947.90 L 436.20 950.00 L 446.90 952.80 L 459.50 955.50 L 486.80 960.30 L 501.30 962.40 L 530.80 966.00 L 572.10 970.00 L 611.10 972.80 L 681.40 976.20 L 704.20 977.00 L 725.70 977.30 L 744.10 976.90 L 751.80 976.30 L 757.20 975.60 L 760.50 974.80 L 762.30 973.90 L 765.40 970.50 L 768.20 968.30 L 778.90 961.10 L 793.30 952.60 L 850.90 920.70 L 856.00 917.40 L 856.70 916.00 L 858.20 911.60 L 861.40 898.70 L 865.30 880.40 L 873.80 835.20 L 880.90 790.90 L 883.10 773.80 L 883.90 762.60 L 883.10 751.70 L 881.00 733.10 L 874.10 679.90 L 865.40 617.90 L 851.40 521.80 L 754.80 522.40 L 659.50 524.20 L 581.20 526.90 L 529.70 529.50 L 481.30 532.80 L 459.30 534.70 L 438.10 537.00 L 419.60 539.30 L 407.50 541.20 L 388.20 544.90 L 379.30 547.20 L 372.40 549.40 L 367.30 551.50 L 364.10 553.20 L 361.90 554.90 L 360.40 556.40 L 359.40 557.90 L 359.00 559.30 L 358.00 566.40 L 356.90 576.40 L 354.90 600.10 L 351.20 658.20 L 346.60 757.90 Z" fill="#f0b477" fill-rule="nonzero" group-id="2" node-id="78" stroke="none" target-height="455.5" target-width="537.30005" target-x="346.6" target-y="521.8"></path><path d="M 489.00 781.90 L 485.10 1123.30 L 605.20 1128.00 L 722.60 1139.60 L 714.30 785.90 L 509.20 779.20 L 489.00 781.90 Z" fill="#eab9b1" fill-rule="nonzero" group-id="2" node-id="80" stroke="#370911" stroke-linecap="butt" stroke-width="14" target-height="360.39996" target-width="237.49997" target-x="485.1" target-y="779.2"></path><path d="M 896.50 594.00 L 896.30 600.00 L 894.80 611.70 L 893.50 617.40 L 891.30 624.90 L 888.50 632.00 L 885.20 638.70 L 879.30 648.10 L 872.60 656.10 L 868.80 659.70 L 864.90 662.90 L 860.80 665.60 L 856.60 667.80 L 852.20 669.70 L 847.60 671.00 L 843.00 671.90 L 838.20 672.20 L 833.40 671.90 L 828.70 671.20 L 824.20 670.10 L 819.80 668.50 L 815.50 666.50 L 811.40 664.10 L 807.50 661.40 L 803.80 658.20 L 797.00 651.10 L 794.00 647.00 L 788.70 638.10 L 784.50 628.20 L 781.60 617.40 L 780.70 611.80 L 779.90 600.00 L 780.20 594.00 L 780.90 588.20 L 782.00 582.60 L 783.60 577.20 L 785.60 571.90 L 788.00 566.80 L 790.60 562.00 L 797.00 553.00 L 804.30 545.20 L 812.60 538.60 L 817.00 535.90 L 826.00 531.50 L 830.80 529.90 L 835.60 528.80 L 840.40 528.10 L 845.20 527.90 L 850.10 528.10 L 854.60 528.70 L 858.90 529.60 L 863.00 530.90 L 866.80 532.60 L 871.30 535.20 L 875.50 538.20 L 879.40 541.80 L 882.90 546.00 L 885.90 550.40 L 888.60 555.40 L 891.00 560.80 L 893.00 566.90 L 894.50 572.90 L 895.50 579.40 L 896.20 586.40 L 896.50 594.00 Z" fill="#fde9d1" fill-rule="nonzero" group-id="2" node-id="82" stroke="#370911" stroke-linecap="butt" stroke-width="14" target-height="144.29999" target-width="116.599976" target-x="779.9" target-y="527.9"></path><path d="M 421.10 600.00 L 420.30 611.80 L 419.40 617.40 L 416.50 628.20 L 412.30 638.10 L 407.00 647.00 L 404.00 651.10 L 397.20 658.20 L 393.50 661.40 L 389.50 664.10 L 385.50 666.50 L 381.20 668.50 L 376.80 670.10 L 372.30 671.20 L 367.60 671.90 L 362.80 672.20 L 358.00 671.90 L 353.30 671.00 L 348.80 669.70 L 344.30 667.80 L 340.00 665.60 L 335.90 662.90 L 331.90 659.70 L 324.50 652.30 L 318.00 643.60 L 315.10 638.70 L 311.80 632.00 L 308.90 624.90 L 306.60 617.40 L 305.30 611.70 L 303.70 600.00 L 303.50 594.00 L 303.80 586.40 L 304.50 579.40 L 305.60 572.90 L 307.20 566.90 L 309.20 560.80 L 311.70 555.40 L 314.50 550.40 L 317.60 546.00 L 321.20 541.80 L 325.20 538.20 L 329.40 535.20 L 334.10 532.60 L 338.90 530.60 L 344.20 529.10 L 349.80 528.20 L 355.80 527.90 L 360.60 528.10 L 365.40 528.80 L 370.20 529.90 L 375.00 531.50 L 379.60 533.50 L 388.40 538.60 L 392.70 541.80 L 400.50 548.90 L 407.40 557.40 L 410.40 562.00 L 413.00 566.80 L 415.40 571.90 L 417.40 577.20 L 419.00 582.60 L 420.10 588.20 L 420.80 594.00 L 421.10 600.00 Z" fill="#fde9d1" fill-rule="nonzero" group-id="2" node-id="84" stroke="#370911" stroke-linecap="butt" stroke-width="14" target-height="144.29999" target-width="117.600006" target-x="303.5" target-y="527.9"></path><path d="M 843.30 559.30 L 843.00 572.70 L 842.20 585.80 L 840.90 598.70 L 839.10 611.40 L 836.90 623.80 L 834.10 636.30 L 830.90 648.40 L 827.20 660.20 L 823.20 671.80 L 818.70 683.10 L 813.70 694.20 L 808.30 705.00 L 802.60 715.50 L 796.50 725.60 L 790.10 735.30 L 783.20 744.90 L 776.00 754.00 L 768.50 762.70 L 760.70 771.00 L 752.60 778.90 L 744.10 786.50 L 735.30 793.60 L 726.40 800.20 L 717.10 806.40 L 707.60 812.10 L 697.80 817.40 L 687.80 822.10 L 677.70 826.40 L 667.30 830.10 L 656.60 833.30 L 645.90 835.90 L 635.00 838.00 L 623.90 839.50 L 612.60 840.40 L 601.10 840.70 L 589.60 840.40 L 578.30 839.50 L 567.20 838.00 L 556.30 835.90 L 545.60 833.30 L 535.00 830.10 L 524.60 826.40 L 514.40 822.10 L 504.40 817.40 L 494.60 812.10 L 485.10 806.40 L 475.90 800.20 L 466.90 793.60 L 458.10 786.50 L 449.60 778.90 L 441.50 771.00 L 433.70 762.70 L 426.20 754.00 L 419.00 744.90 L 412.10 735.30 L 405.70 725.60 L 399.60 715.50 L 393.90 705.00 L 388.50 694.20 L 383.60 683.10 L 379.10 671.80 L 375.00 660.20 L 371.30 648.40 L 368.10 636.30 L 365.30 623.80 L 363.10 611.40 L 361.30 598.70 L 360.00 585.80 L 359.20 572.70 L 358.90 559.30 L 359.20 545.90 L 360.00 532.80 L 361.30 519.90 L 363.10 507.20 L 365.30 494.80 L 368.10 482.30 L 371.30 470.20 L 375.00 458.40 L 379.10 446.80 L 383.60 435.50 L 388.50 424.40 L 393.90 413.60 L 399.60 403.10 L 405.70 393.00 L 412.10 383.30 L 419.00 373.70 L 426.20 364.60 L 433.70 355.90 L 441.50 347.60 L 449.60 339.70 L 458.10 332.10 L 466.90 325.00 L 475.90 318.40 L 485.10 312.20 L 494.60 306.50 L 504.40 301.20 L 514.40 296.50 L 524.60 292.20 L 535.00 288.50 L 545.60 285.30 L 556.30 282.70 L 567.20 280.60 L 578.30 279.10 L 589.60 278.20 L 601.10 277.90 L 612.60 278.20 L 623.90 279.10 L 635.00 280.60 L 645.90 282.70 L 656.60 285.30 L 667.30 288.50 L 677.70 292.20 L 687.80 296.50 L 697.80 301.20 L 707.60 306.50 L 717.10 312.20 L 726.40 318.40 L 735.30 325.00 L 744.10 332.10 L 752.60 339.70 L 760.70 347.60 L 768.50 355.90 L 776.00 364.60 L 783.20 373.70 L 790.10 383.30 L 796.50 393.00 L 802.60 403.10 L 808.30 413.60 L 813.70 424.40 L 818.70 435.50 L 823.20 446.80 L 827.20 458.40 L 830.90 470.20 L 834.10 482.30 L 836.90 494.80 L 839.10 507.20 L 840.90 519.90 L 842.20 532.80 L 843.00 545.90 L 843.30 559.30 Z" fill="#f9d9d0" fill-rule="nonzero" group-id="2" node-id="86" stroke="#370911" stroke-linecap="butt" stroke-width="14" target-height="562.80005" target-width="484.4" target-x="358.9" target-y="277.9"></path><path d="M 527.00 548.10 L 526.70 551.60 L 526.00 554.90 L 524.90 558.10 L 523.40 561.20 L 521.40 564.10 L 519.10 566.70 L 516.40 569.00 L 513.50 570.90 L 510.40 572.40 L 507.10 573.50 L 503.70 574.20 L 500.10 574.40 L 496.40 574.10 L 493.00 573.40 L 489.70 572.30 L 486.50 570.80 L 483.70 568.90 L 481.10 566.70 L 478.90 564.20 L 476.90 561.40 L 475.40 558.30 L 474.20 555.10 L 473.50 551.70 L 473.30 548.10 L 473.50 544.50 L 474.20 541.10 L 475.40 537.80 L 476.90 534.80 L 478.90 532.00 L 481.10 529.50 L 483.70 527.30 L 486.50 525.40 L 489.70 523.80 L 493.00 522.70 L 496.40 522.00 L 500.10 521.80 L 503.70 522.00 L 507.10 522.70 L 510.40 523.80 L 513.50 525.30 L 516.40 527.20 L 519.10 529.50 L 521.40 532.10 L 523.40 534.90 L 524.90 538.00 L 526.00 541.30 L 526.70 544.60 L 527.00 548.10 Z" fill="#271d1f" fill-rule="nonzero" group-id="2" node-id="88" stroke="none" target-height="52.600037" target-width="53.700012" target-x="473.3" target-y="521.8"></path><path d="M 719.50 548.10 L 719.20 551.60 L 718.50 554.90 L 717.40 558.10 L 715.90 561.20 L 713.90 564.10 L 711.60 566.70 L 708.90 569.00 L 706.00 570.90 L 702.90 572.40 L 699.60 573.50 L 696.20 574.20 L 692.60 574.40 L 689.10 574.20 L 685.70 573.50 L 682.30 572.40 L 679.20 570.90 L 676.30 569.00 L 673.60 566.70 L 671.30 564.10 L 669.40 561.20 L 667.80 558.10 L 666.70 554.90 L 666.00 551.60 L 665.80 548.10 L 666.00 544.60 L 666.70 541.30 L 667.80 538.00 L 669.40 534.90 L 671.30 532.10 L 673.60 529.50 L 676.30 527.20 L 679.20 525.30 L 682.30 523.80 L 685.70 522.70 L 689.10 522.00 L 692.60 521.80 L 696.20 522.00 L 699.60 522.70 L 702.90 523.80 L 706.00 525.30 L 708.90 527.20 L 711.60 529.50 L 713.90 532.10 L 715.90 534.90 L 717.40 538.00 L 718.50 541.30 L 719.20 544.60 L 719.50 548.10 Z" fill="#271d1f" fill-rule="nonzero" group-id="2" node-id="90" stroke="none" target-height="52.600037" target-width="53.700012" target-x="665.8" target-y="521.8"></path><path d="M 700.50 479.20 L 713.90 480.50 L 719.00 481.50 L 728.20 484.30 L 731.50 485.70 L 735.90 488.20 L 738.90 490.30 L 741.30 492.60 L 743.50 495.70" fill="none" group-id="2" node-id="92" stroke="#231815" stroke-linecap="round" stroke-width="20" target-height="16.5" target-width="43" target-x="700.5" target-y="479.2"></path><path d="M 456.50 494.70 L 458.60 491.20 L 462.70 487.30 L 468.20 484.00 L 471.40 482.60 L 480.50 480.20 L 485.50 479.50 L 491.60 479.20 L 499.00 479.20" fill="none" group-id="2" node-id="94" stroke="#231815" stroke-linecap="round" stroke-width="20" target-height="15.5" target-width="42.5" target-x="456.5" target-y="479.2"></path><path d="M 672.80 684.30 L 672.50 687.60 L 671.90 690.70 L 670.70 693.80 L 669.10 696.90 L 667.10 699.70 L 662.00 705.20 L 658.70 707.80 L 654.20 710.90 L 648.90 713.70 L 643.00 716.40 L 636.90 718.60 L 630.20 720.50 L 623.00 722.00 L 615.70 723.10 L 608.10 723.80 L 600.00 724.10 L 592.00 723.80 L 584.30 723.10 L 577.00 722.00 L 569.80 720.50 L 563.20 718.60 L 557.00 716.40 L 551.10 713.70 L 545.90 710.90 L 541.30 707.80 L 535.30 702.50 L 531.00 696.90 L 529.30 693.80 L 528.20 690.70 L 527.50 687.60 L 527.30 684.30 L 527.50 681.10 L 528.20 677.90 L 529.30 674.80 L 531.00 671.80 L 535.30 666.20 L 538.00 663.50 L 541.30 660.90 L 545.90 657.80 L 551.10 654.90 L 557.00 652.20 L 563.20 650.00 L 569.80 648.20 L 577.00 646.60 L 584.30 645.50 L 592.00 644.80 L 600.00 644.60 L 608.10 644.80 L 615.70 645.50 L 623.00 646.60 L 630.20 648.20 L 636.90 650.00 L 643.00 652.20 L 648.90 654.90 L 654.20 657.80 L 658.70 660.90 L 662.00 663.50 L 667.10 668.90 L 670.70 674.80 L 671.90 677.90 L 672.50 681.10 L 672.80 684.30 Z" fill="#ee8685" fill-rule="nonzero" group-id="2" node-id="96" stroke="#310304" stroke-linecap="butt" stroke-width="10" target-height="79.5" target-width="145.5" target-x="527.3" target-y="644.6"></path><path d="M 545.90 705.80 L 555.80 710.80 L 561.50 713.10 L 573.70 716.60 L 587.20 718.90 L 594.30 719.60 L 601.60 719.80 L 616.50 719.10 L 622.70 718.20 L 628.90 717.00 L 634.50 715.50 L 639.70 713.60 L 644.70 711.30 L 649.50 708.70 L 654.10 705.80 L 653.00 703.30 L 651.60 701.00 L 649.70 698.90 L 647.40 696.80 L 644.70 694.90 L 641.10 693.00 L 636.90 691.30 L 632.00 689.80 L 626.30 688.50 L 618.80 687.40 L 610.30 686.70 L 600.80 686.50 L 589.60 686.70 L 579.80 687.50 L 573.40 688.40 L 563.00 690.80 L 558.20 692.60 L 554.40 694.60 L 551.30 696.80 L 549.30 698.80 L 547.70 700.90 L 546.60 703.20 L 545.90 705.80 Z" fill="#e5415b" fill-rule="nonzero" group-id="2" node-id="98" stroke="none" target-height="33.299988" target-width="108.19995" target-x="545.9" target-y="686.5"></path><path d="M 603.90 672.70 L 625.70 672.50 L 642.30 671.50 L 655.40 669.60 L 661.00 668.10 L 666.20 666.30 L 664.20 661.20 L 661.30 657.00 L 659.20 655.20 L 656.60 653.50 L 653.80 652.20 L 650.10 651.00 L 640.60 649.30 L 627.20 648.50 L 615.40 648.50 L 600.00 649.10 L 585.30 648.60 L 574.00 648.50 L 563.70 649.00 L 556.10 649.80 L 547.60 651.80 L 541.80 654.50 L 537.70 657.90 L 535.50 660.90 L 533.80 664.30 L 540.00 667.40 L 547.50 669.60 L 557.50 671.20 L 565.90 671.90 L 576.90 672.40 L 603.90 672.70 Z" fill="#ffffff" fill-rule="nonzero" group-id="2" node-id="100" stroke="none" target-height="24.200012" target-width="132.40002" target-x="533.8" target-y="648.5"></path><path d="M 499.70 643.10 L 499.40 648.20 L 498.70 653.10 L 497.50 657.80 L 495.80 662.30 L 493.70 666.70 L 491.20 670.80 L 488.40 674.50 L 485.20 678.10 L 481.60 681.30 L 477.90 684.10 L 473.80 686.60 L 469.40 688.70 L 464.90 690.40 L 460.20 691.60 L 455.30 692.30 L 450.20 692.60 L 445.00 692.30 L 440.10 691.60 L 435.40 690.40 L 430.90 688.70 L 426.50 686.60 L 422.40 684.10 L 418.70 681.30 L 415.10 678.10 L 411.90 674.50 L 409.10 670.80 L 406.60 666.70 L 404.50 662.30 L 402.80 657.80 L 401.60 653.10 L 400.90 648.20 L 400.60 643.10 L 400.90 637.90 L 401.60 633.00 L 402.80 628.30 L 404.50 623.80 L 406.60 619.40 L 409.10 615.30 L 411.90 611.60 L 415.10 608.00 L 418.70 604.80 L 422.40 602.00 L 426.50 599.50 L 430.90 597.40 L 435.40 595.70 L 440.10 594.50 L 445.00 593.80 L 450.20 593.50 L 455.30 593.80 L 460.20 594.50 L 464.90 595.70 L 469.40 597.40 L 473.80 599.50 L 477.90 602.00 L 481.60 604.80 L 485.20 608.00 L 488.40 611.60 L 491.20 615.30 L 493.70 619.40 L 495.80 623.80 L 497.50 628.30 L 498.70 633.00 L 499.40 637.90 L 499.70 643.10 Z" fill="#de717e" fill-rule="nonzero" group-id="2" node-id="102" stroke="none" target-height="99.099976" target-width="99.100006" target-x="400.6" target-y="593.5"></path><path d="M 799.40 643.10 L 799.10 648.20 L 798.40 653.10 L 797.20 657.80 L 795.50 662.30 L 793.40 666.70 L 790.90 670.80 L 788.10 674.50 L 784.90 678.10 L 781.30 681.30 L 777.60 684.10 L 773.50 686.60 L 769.10 688.70 L 764.60 690.40 L 759.90 691.60 L 755.00 692.30 L 749.90 692.60 L 744.70 692.30 L 739.80 691.60 L 735.10 690.40 L 730.60 688.70 L 726.20 686.60 L 722.10 684.10 L 718.40 681.30 L 714.80 678.10 L 711.60 674.50 L 708.80 670.80 L 706.30 666.70 L 704.20 662.30 L 702.50 657.80 L 701.30 653.10 L 700.60 648.20 L 700.30 643.10 L 700.60 637.90 L 701.30 633.00 L 702.50 628.30 L 704.20 623.80 L 706.30 619.40 L 708.80 615.30 L 711.60 611.60 L 714.80 608.00 L 718.40 604.80 L 722.10 602.00 L 726.20 599.50 L 730.60 597.40 L 735.10 595.70 L 739.80 594.50 L 744.70 593.80 L 749.90 593.50 L 755.00 593.80 L 759.90 594.50 L 764.60 595.70 L 769.10 597.40 L 773.50 599.50 L 777.60 602.00 L 781.30 604.80 L 784.90 608.00 L 788.10 611.60 L 790.90 615.30 L 793.40 619.40 L 795.50 623.80 L 797.20 628.30 L 798.40 633.00 L 799.10 637.90 L 799.40 643.10 Z" fill="#de717e" fill-rule="nonzero" group-id="2" node-id="104" stroke="none" target-height="99.099976" target-width="99.10004" target-x="700.3" target-y="593.5"></path><path d="M 585.40 292.90 L 570.70 297.80 L 555.40 304.20 L 546.80 308.40 L 531.50 317.10 L 519.40 325.60 L 513.60 330.30 L 508.10 335.40 L 502.80 340.90 L 495.80 349.70 L 490.00 359.40 L 487.60 364.50 L 485.60 369.90 L 484.00 375.50 L 479.40 401.40 L 477.60 410.00 L 473.20 426.40 L 467.00 444.20 L 462.80 453.80 L 458.20 463.10 L 448.10 480.80 L 425.70 515.10 L 416.70 526.80 L 391.30 555.60 L 384.70 564.20 L 382.10 568.20 L 379.80 572.50 L 378.10 576.70 L 377.00 580.90 L 376.50 587.40 L 376.80 590.90 L 377.50 594.60 L 379.00 599.30 L 381.20 604.70 L 384.20 610.90 L 389.20 620.00 L 415.10 663.00 L 425.40 682.20 L 432.00 697.50 L 434.70 705.20 L 436.60 712.60 L 437.90 719.80 L 438.50 730.90 L 438.20 736.90 L 436.30 751.80 L 434.60 760.60 L 432.40 769.80 L 428.50 783.50 L 424.20 797.60 L 410.30 838.70 L 404.00 859.50 L 400.60 874.00 L 400.20 877.90 L 400.20 881.80 L 400.60 885.70 L 401.40 889.60 L 403.00 894.70 L 405.20 899.80 L 407.90 905.00 L 412.50 912.60 L 417.80 920.20 L 434.40 942.20 L 439.10 949.10 L 444.40 958.30 L 446.20 962.60 L 447.80 969.00 L 447.80 975.10 L 447.20 977.90 L 446.00 980.80 L 444.30 983.60 L 441.90 986.50 L 439.10 989.00 L 433.00 993.20 L 429.60 994.80 L 424.90 996.50 L 419.90 997.80 L 414.70 998.70 L 403.90 999.30 L 398.40 999.20 L 390.10 998.50 L 382.00 997.30 L 374.20 995.80 L 360.20 992.30 L 343.10 986.50 L 329.20 993.30 L 318.00 997.70 L 311.80 999.70 L 305.50 1001.30 L 299.10 1002.40 L 294.90 1002.80 L 286.80 1002.70 L 282.90 1002.00 L 279.40 1000.90 L 276.10 999.30 L 273.00 997.20 L 270.10 994.60 L 267.30 991.40 L 262.30 984.00 L 256.90 973.10 L 251.80 959.10 L 246.70 940.40 L 244.40 928.70 L 232.10 930.30 L 219.40 930.70 L 212.30 930.30 L 204.80 929.40 L 199.80 928.40 L 190.00 925.20 L 185.30 923.10 L 180.90 920.40 L 176.80 917.30 L 174.00 914.60 L 171.40 911.60 L 169.10 908.10 L 167.00 904.30 L 165.30 900.40 L 164.00 895.90 L 163.00 890.90 L 162.40 885.30 L 161.40 868.10 L 160.70 842.10 L 161.00 824.60 L 161.30 819.00 L 162.40 809.50 L 169.20 816.70 L 172.50 819.70 L 176.60 822.80 L 181.00 825.70 L 185.80 828.20 L 189.10 829.50 L 192.50 830.30 L 195.90 830.80 L 199.40 830.70 L 202.80 830.10 L 206.40 828.80 L 211.30 825.70 L 216.40 820.30 L 218.30 817.50 L 219.70 814.70 L 220.60 812.00 L 221.20 809.20 L 221.40 805.50 L 221.00 801.50 L 220.10 797.40 L 218.10 791.30 L 215.30 784.50 L 205.40 762.40 L 202.30 753.90 L 200.60 748.10 L 199.30 742.00 L 198.30 735.50 L 197.80 728.90 L 197.90 721.90 L 198.60 714.30 L 200.90 703.00 L 205.20 690.20 L 209.40 680.50 L 213.40 672.30 L 217.30 665.40 L 221.50 658.70 L 225.50 653.00 L 229.30 648.30 L 237.40 639.80 L 247.00 631.90 L 263.20 620.20 L 269.80 614.40 L 273.00 611.00 L 275.90 607.40 L 278.80 603.10 L 281.60 598.10 L 283.10 594.60 L 284.10 591.20 L 284.70 587.80 L 284.90 584.40 L 284.50 579.80 L 283.60 575.00 L 282.10 570.20 L 279.30 562.90 L 263.70 531.80 L 260.30 523.50 L 258.40 517.80 L 256.90 512.00 L 255.90 506.10 L 255.50 497.20 L 256.70 487.70 L 257.90 483.10 L 259.60 478.30 L 261.90 473.30 L 264.80 468.00 L 288.50 430.80 L 317.10 387.60 L 343.10 347.00 L 359.30 320.00 L 377.50 287.80 L 382.90 278.90 L 388.50 270.30 L 394.50 262.10 L 403.30 251.50 L 413.80 240.90 L 427.00 229.60 L 437.90 221.20 L 448.30 213.80 L 458.30 207.40 L 473.50 198.90 L 487.30 192.80 L 494.40 190.30 L 501.10 188.50 L 507.30 187.30 L 513.20 186.70 L 518.10 186.50 L 522.70 186.80 L 527.00 187.50 L 531.10 188.50 L 543.10 192.90 L 551.40 195.50 L 559.70 197.50 L 568.20 199.10 L 576.70 200.20 L 585.40 200.70 L 591.10 200.10 L 595.20 199.00 L 635.10 185.90 L 644.50 183.30 L 657.10 180.90 L 663.30 180.10 L 669.60 179.80 L 675.60 180.00 L 681.30 180.60 L 685.50 181.50 L 689.60 182.80 L 693.50 184.50 L 697.20 186.60 L 703.20 190.80 L 709.00 195.40 L 714.60 200.40 L 719.80 205.80 L 726.40 213.40 L 732.70 221.60 L 738.80 230.30 L 747.50 244.00 L 773.50 289.20 L 776.80 294.20 L 780.40 298.50 L 784.30 302.30 L 788.50 305.60 L 792.90 308.60 L 797.60 311.10 L 804.80 314.50 L 812.30 317.30 L 834.70 324.60 L 846.10 329.30 L 854.00 333.90 L 857.50 336.80 L 860.60 340.00 L 863.30 343.70 L 866.40 349.90 L 867.60 353.70 L 868.50 357.90 L 869.50 365.40 L 870.00 372.40 L 870.10 378.80 L 869.30 391.20 L 864.40 420.20 L 863.30 432.00 L 863.90 441.30 L 864.80 445.80 L 866.40 450.50 L 868.50 455.40 L 870.10 458.00 L 873.70 462.00 L 875.80 463.50 L 878.80 465.00 L 882.10 466.30 L 885.60 467.10 L 891.10 467.90 L 908.60 469.00 L 914.30 469.70 L 919.60 471.00 L 922.90 472.30 L 926.00 474.00 L 928.80 476.30 L 930.60 478.20 L 933.80 483.40 L 936.10 490.00 L 937.30 498.70 L 937.50 504.20 L 937.20 512.40 L 936.60 519.70 L 935.60 526.20 L 934.20 532.60 L 931.00 543.50 L 928.20 550.90 L 920.50 569.00 L 919.30 572.70 L 917.90 579.70 L 917.80 583.30 L 918.30 586.90 L 919.30 590.80 L 920.80 594.60 L 923.10 598.80 L 926.30 603.60 L 931.60 610.10 L 936.40 615.20 L 941.20 619.70 L 956.60 632.50 L 960.80 637.60 L 963.00 642.60 L 963.90 648.60 L 963.90 652.50 L 962.90 661.10 L 961.70 666.80 L 959.20 676.40 L 956.60 684.30 L 949.00 704.10 L 947.00 709.50 L 945.50 714.70 L 944.70 719.80 L 944.80 726.70 L 946.60 734.00 L 948.20 738.10 L 950.50 742.70 L 953.20 747.00 L 958.60 753.70 L 962.90 757.80 L 975.20 767.30 L 979.80 771.60 L 983.30 776.80 L 984.60 780.00 L 985.60 783.80 L 986.20 787.80 L 986.30 792.60 L 985.90 798.70 L 985.00 803.70 L 983.70 808.30 L 981.80 812.50 L 979.50 816.50 L 974.20 823.70 L 969.70 828.60 L 960.70 837.60 L 954.60 844.60 L 951.50 850.30 L 950.50 854.80 L 950.60 857.20 L 952.00 862.10 L 953.30 864.70 L 958.00 870.90 L 961.90 874.80 L 965.70 877.70 L 969.30 879.80 L 973.20 881.40 L 976.90 882.40 L 980.50 882.80 L 987.60 882.40 L 990.90 881.60 L 995.80 879.90 L 1000.10 877.80 L 1004.10 875.40 L 1010.30 870.70 L 1013.90 867.30 L 1013.20 882.00 L 1012.50 889.00 L 1010.20 905.70 L 1008.30 914.70 L 1005.90 923.70 L 1003.00 932.40 L 1000.60 938.00 L 998.00 943.30 L 995.00 948.10 L 989.90 954.60 L 983.90 959.60 L 980.60 961.60 L 977.10 963.10 L 973.30 964.20 L 969.20 964.80 L 956.40 965.60 L 947.00 965.90 L 938.60 965.60 L 927.90 964.30 L 922.50 962.60 L 920.70 961.20 L 915.20 970.80 L 909.10 980.00 L 901.80 989.60 L 897.70 994.10 L 893.70 997.90 L 890.80 1000.20 L 888.10 1001.80 L 883.50 1003.50 L 881.60 1003.70 L 877.90 1003.00 L 872.80 1000.40 L 867.60 997.30 L 857.50 990.20 L 848.90 983.10 L 840.60 975.70 L 826.70 986.80 L 815.30 994.50 L 808.80 998.30 L 802.20 1001.90 L 795.40 1004.90 L 786.20 1007.90 L 781.80 1008.90 L 777.40 1009.30 L 773.20 1009.30 L 769.20 1008.70 L 766.40 1007.90 L 763.70 1006.60 L 761.10 1005.00 L 758.70 1002.90 L 756.60 1000.60 L 754.60 997.80 L 752.80 994.30 L 751.20 990.10 L 749.60 984.70 L 748.40 979.00 L 747.60 973.10 L 747.10 966.90 L 747.00 958.70 L 747.50 950.20 L 748.50 941.50 L 751.70 924.00 L 753.80 915.30 L 757.60 902.20 L 761.90 889.70 L 766.60 877.40 L 776.40 855.30 L 780.90 846.00 L 792.70 824.10 L 796.40 815.80 L 799.80 806.90 L 803.00 796.70 L 806.50 782.50 L 809.00 767.20 L 809.70 759.40 L 810.10 751.60 L 810.00 743.70 L 809.40 735.90 L 808.40 728.20 L 805.80 716.80 L 801.80 706.00 L 799.30 700.80 L 796.30 695.90 L 793.00 691.10 L 785.90 682.40 L 783.10 678.40 L 780.80 674.30 L 779.00 670.30 L 777.10 664.60 L 775.80 658.90 L 775.20 653.10 L 775.00 647.20 L 775.30 641.30 L 776.00 635.30 L 777.60 626.30 L 779.70 617.20 L 786.90 590.30 L 789.80 575.90 L 790.60 565.00 L 790.40 559.60 L 789.70 554.40 L 788.40 549.40 L 786.30 543.80 L 783.70 538.50 L 780.70 533.40 L 777.30 528.50 L 769.80 519.10 L 750.90 499.00 L 740.80 487.70 L 733.80 478.20 L 730.80 473.20 L 728.20 468.00 L 726.10 462.50 L 724.90 458.40 L 723.40 449.40 L 722.90 438.20 L 722.40 433.00 L 721.50 428.90 L 720.10 425.00 L 718.60 421.80 L 716.80 419.20 L 712.50 414.90 L 706.00 410.70 L 697.20 405.90 L 689.50 400.40 L 683.30 393.90 L 680.50 390.10 L 677.60 385.40 L 674.70 379.60 L 669.60 367.50 L 659.10 339.90 L 656.00 332.50 L 652.90 326.30 L 650.50 322.40 L 647.70 318.90 L 644.60 315.70 L 641.20 312.80 L 637.00 310.00 L 631.90 307.30 L 622.20 303.00 L 613.70 299.70 L 605.50 297.10 L 592.90 294.00 L 585.40 292.90 Z" fill="#f8cc77" fill-rule="nonzero" group-id="2" node-id="106" stroke="none" target-height="829.5" target-width="853.2" target-x="160.7" target-y="179.8"></path><path d="M 528.60 967.70 L 536.10 962.00 L 539.80 959.60 L 549.00 954.80 L 554.10 952.80 L 557.70 951.70 L 564.90 950.50 L 573.50 950.60 L 581.70 952.20 L 585.70 953.50 L 593.30 957.10 L 600.10 962.00 L 603.20 964.90 L 610.10 973.40 L 611.40 974.40 L 612.60 974.80 L 613.80 974.80 L 616.50 973.40 L 618.40 971.60 L 628.70 959.60 L 634.60 954.90 L 640.20 952.00 L 643.20 951.10 L 646.60 950.50 L 650.40 950.40 L 655.60 950.80 L 660.60 951.80 L 665.40 953.20 L 670.00 955.20 L 674.40 957.60 L 678.60 960.50 L 682.40 963.70 L 685.90 967.40 L 690.40 973.30 L 691.60 974.00 L 692.30 972.90 L 692.50 971.30 L 692.90 956.80 L 694.10 948.00 L 696.00 942.70 L 697.30 940.30 L 699.00 938.30 L 701.00 936.60 L 703.40 935.20 L 708.00 933.60 L 711.90 932.50 L 715.20 932.00 L 718.60 931.90 L 723.60 932.40 L 726.60 933.30 L 730.10 935.20 L 729.20 926.70 L 728.80 918.30 L 729.10 909.10 L 729.70 904.50 L 730.70 900.50 L 732.70 895.90 L 733.90 894.20 L 736.20 892.10 L 739.10 890.20 L 742.70 888.60 L 747.20 887.30 L 751.50 886.50 L 756.50 886.00 L 762.10 885.90 L 774.70 886.90 L 788.60 889.50 L 816.20 896.20 L 822.90 898.10 L 831.80 901.50 L 836.30 903.70 L 840.70 906.30 L 845.10 909.60 L 849.70 913.50 L 854.00 917.80 L 858.50 923.00 L 863.10 929.30 L 867.40 935.90 L 871.80 943.80 L 876.40 953.10 L 880.60 962.60 L 885.00 973.80 L 889.60 986.80 L 899.10 1017.10 L 908.70 1052.80 L 913.40 1072.40 L 917.40 1091.30 L 923.40 1123.10 L 925.40 1135.30 L 928.80 1159.70 L 316.50 1181.70 L 267.80 1171.90 L 256.50 1169.20 L 246.70 1166.20 L 245.90 1165.50 L 247.80 1159.40 L 260.20 1121.30 L 269.70 1093.20 L 287.00 1045.40 L 299.90 1012.40 L 306.50 996.50 L 320.00 966.80 L 326.90 953.10 L 333.30 941.50 L 337.80 934.00 L 346.00 922.70 L 349.30 918.90 L 355.10 913.90 L 357.60 912.30 L 397.70 892.30 L 409.20 891.90 L 421.20 892.00 L 435.10 892.90 L 449.30 894.80 L 456.10 896.30 L 462.20 898.10 L 466.10 899.70 L 472.20 903.30 L 476.30 906.70 L 482.20 913.00 L 486.40 919.40 L 489.20 926.50 L 490.40 933.10 L 490.40 937.20 L 492.70 935.80 L 494.90 935.10 L 497.40 934.70 L 503.40 935.00 L 510.00 936.70 L 514.40 938.60 L 517.90 940.70 L 520.70 943.00 L 523.10 945.70 L 525.00 948.40 L 526.40 951.10 L 527.90 955.30 L 528.60 959.10 L 528.90 962.70 L 528.60 967.70 Z" fill="#131212" fill-rule="nonzero" group-id="2" node-id="108" stroke="#370911" stroke-linecap="butt" stroke-width="14" target-height="295.79993" target-width="682.9" target-x="245.9" target-y="885.9"></path></g></g><g clip-path="url(#clip-path-3)" group-id="3" id="sillyvg_g_2" node-id="111"><path d="M -775.90 872.60 L -773.30 881.50 L -771.80 885.20 L -770.00 889.00 L -767.90 892.50 L -765.60 895.20 L -763.80 896.70 L -762.00 897.50 L -760.00 897.90 L -673.90 897.00 L -629.70 897.30 L -591.10 898.30 L -569.30 897.60 L -548.90 895.90 L -539.60 894.70 L -526.90 892.10 L -523.10 890.90 L -518.10 888.50 L -516.80 887.40 L -516.10 886.30 L -515.80 885.20 L -515.80 853.90 L -506.80 855.90 L -498.10 858.60 L -488.70 862.70 L -484.20 865.40 L -480.30 868.50 L -478.00 870.90 L -476.10 873.40 L -474.70 876.10 L -473.40 879.60 L -471.90 886.00 L -471.40 894.90 L -472.10 906.40 L -471.60 911.40 L -470.00 914.70 L -468.20 916.30 L -464.20 918.90 L -452.60 924.80 L -389.40 954.00 L -371.20 963.50 L -359.90 969.90 L -355.10 972.10 L -338.00 978.30 L -310.60 986.80 L -259.40 1000.60 L -222.00 1009.90 L -148.90 1027.10 L -75.60 1043.40 L -6.00 1056.90 L 18.30 1393.70 L -1265.20 1339.40 L -1255.80 1071.90 L -1140.80 1045.40 L -1024.10 1019.40 L -959.20 1005.80 L -936.50 1001.70 L -927.70 1000.40 L -918.70 999.50 L -913.50 998.10 L -911.60 996.90 L -910.20 995.70 L -909.40 994.30 L -908.70 991.90 L -908.70 989.20 L -909.50 980.20 L -909.40 977.10 L -909.00 975.10 L -908.20 973.20 L -907.10 971.20 L -905.50 969.50 L -903.40 967.80 L -900.30 966.10 L -892.80 963.60 L -866.20 958.20 L -844.80 952.40 L -809.20 939.90 L -803.10 938.10 L -801.30 937.50 L -799.70 936.50 L -797.40 933.50 L -796.40 931.10 L -795.70 928.20 L -795.30 924.80 L -795.50 913.80 L -796.90 897.20 L -797.00 892.80 L -796.30 888.10 L -795.60 886.70 L -793.20 884.00 L -790.20 881.30 L -783.70 876.90 L -775.90 872.60 Z" fill="#040000" fill-rule="nonzero" group-id="3" node-id="113" stroke="#360810" stroke-linecap="round" stroke-width="14" target-height="539.7999" target-width="1283.5" target-x="-1265.2" target-y="853.9"></path></g></svg>